<mxfile host="app.diagrams.net" modified="2024-02-21T17:36:24.170Z" agent="Mozilla/5.0 (X11; Linux x86_64; rv:122.0) Gecko/20100101 Firefox/122.0" etag="OvkFacl0H2vUZRMP37W_" version="23.1.5" type="device">
  <diagram name="Page-1" id="GSXjGJxpYGesPzK72Oho">
    <mxGraphModel dx="1137" dy="754" grid="1" gridSize="10" guides="1" tooltips="1" connect="1" arrows="1" fold="1" page="1" pageScale="1" pageWidth="850" pageHeight="1100" math="0" shadow="0">
      <root>
        <mxCell id="0" />
        <mxCell id="1" parent="0" />
        <mxCell id="-e5JYh3tk_dBkfc9BK_Y-142" value="&lt;div&gt;Data to keep during all pipeline analysis&lt;/div&gt;" style="rounded=0;whiteSpace=wrap;html=1;" parent="1" vertex="1">
          <mxGeometry x="451.00000000000006" y="2500" width="363.71" height="610" as="geometry" />
        </mxCell>
        <mxCell id="-e5JYh3tk_dBkfc9BK_Y-139" value="&lt;br&gt;&lt;div&gt;&lt;br&gt;&lt;/div&gt;&lt;div&gt;&lt;br&gt;&lt;/div&gt;&lt;div&gt;&lt;br&gt;&lt;/div&gt;&lt;div&gt;&lt;br&gt;&lt;/div&gt;&lt;div&gt;&lt;br&gt;&lt;/div&gt;&lt;div&gt;&lt;br&gt;&lt;/div&gt;&lt;div&gt;&lt;br&gt;&lt;/div&gt;&lt;div&gt;&lt;br&gt;&lt;/div&gt;&lt;div&gt;&lt;br&gt;&lt;/div&gt;&lt;div&gt;&lt;br&gt;&lt;/div&gt;&lt;div&gt;&lt;br&gt;&lt;/div&gt;&lt;div&gt;&lt;br&gt;&lt;/div&gt;&lt;div&gt;&lt;br&gt;&lt;/div&gt;&lt;div&gt;&lt;br&gt;&lt;/div&gt;&lt;div&gt;&lt;br&gt;&lt;/div&gt;&lt;div&gt;&lt;br&gt;&lt;/div&gt;&lt;div&gt;&lt;br&gt;&lt;/div&gt;&lt;div&gt;&lt;br&gt;&lt;/div&gt;&lt;div&gt;&lt;br&gt;&lt;/div&gt;&lt;div&gt;&lt;br&gt;&lt;/div&gt;&lt;div&gt;&lt;br&gt;&lt;/div&gt;&lt;div&gt;&lt;br&gt;&lt;/div&gt;&lt;div&gt;&lt;br&gt;&lt;/div&gt;&lt;div&gt;&lt;br&gt;&lt;/div&gt;&lt;div&gt;&lt;br&gt;&lt;/div&gt;&lt;div&gt;&lt;br&gt;&lt;/div&gt;&lt;div&gt;Data to keep during this pipeline analysis&lt;/div&gt;" style="rounded=0;whiteSpace=wrap;html=1;" parent="1" vertex="1">
          <mxGeometry x="30.99999999999995" y="2500" width="153.79" height="610" as="geometry" />
        </mxCell>
        <mxCell id="-e5JYh3tk_dBkfc9BK_Y-137" value="" style="rounded=0;whiteSpace=wrap;html=1;" parent="1" vertex="1">
          <mxGeometry x="190.99999999999994" y="2500" width="240" height="610" as="geometry" />
        </mxCell>
        <mxCell id="-e5JYh3tk_dBkfc9BK_Y-133" value="" style="rounded=1;whiteSpace=wrap;html=1;" parent="1" vertex="1">
          <mxGeometry x="241" y="2330" width="573.71" height="160" as="geometry" />
        </mxCell>
        <mxCell id="bHEL2EoI4zcogpbZpF7H-115" value="" style="rounded=1;whiteSpace=wrap;html=1;" parent="1" vertex="1">
          <mxGeometry x="260.78999999999996" y="620" width="170" height="350" as="geometry" />
        </mxCell>
        <mxCell id="bHEL2EoI4zcogpbZpF7H-107" value="" style="rounded=1;whiteSpace=wrap;html=1;" parent="1" vertex="1">
          <mxGeometry x="110" y="1296" width="660" height="772" as="geometry" />
        </mxCell>
        <mxCell id="bHEL2EoI4zcogpbZpF7H-76" value="" style="rounded=1;whiteSpace=wrap;html=1;" parent="1" vertex="1">
          <mxGeometry x="1400" y="550" width="180" height="240" as="geometry" />
        </mxCell>
        <mxCell id="bHEL2EoI4zcogpbZpF7H-65" value="" style="rounded=1;whiteSpace=wrap;html=1;" parent="1" vertex="1">
          <mxGeometry x="1040" y="550" width="170" height="240" as="geometry" />
        </mxCell>
        <mxCell id="bHEL2EoI4zcogpbZpF7H-47" value="" style="rounded=1;whiteSpace=wrap;html=1;" parent="1" vertex="1">
          <mxGeometry x="940" y="50" width="590" height="410" as="geometry" />
        </mxCell>
        <mxCell id="bHEL2EoI4zcogpbZpF7H-37" value="" style="rounded=0;whiteSpace=wrap;html=1;" parent="1" vertex="1">
          <mxGeometry x="960" y="100" width="400" height="100" as="geometry" />
        </mxCell>
        <mxCell id="bHEL2EoI4zcogpbZpF7H-24" value="" style="rounded=1;whiteSpace=wrap;html=1;" parent="1" vertex="1">
          <mxGeometry x="460.79" y="269" width="170" height="320" as="geometry" />
        </mxCell>
        <mxCell id="bHEL2EoI4zcogpbZpF7H-17" value="" style="rounded=1;whiteSpace=wrap;html=1;" parent="1" vertex="1">
          <mxGeometry x="172.15" y="269" width="268.64" height="240" as="geometry" />
        </mxCell>
        <mxCell id="bHEL2EoI4zcogpbZpF7H-10" value="" style="rounded=1;whiteSpace=wrap;html=1;" parent="1" vertex="1">
          <mxGeometry x="170.79000000000002" y="109" width="570" height="140" as="geometry" />
        </mxCell>
        <mxCell id="bHEL2EoI4zcogpbZpF7H-1" value="Actor" style="shape=umlActor;verticalLabelPosition=bottom;verticalAlign=top;html=1;outlineConnect=0;" parent="1" vertex="1">
          <mxGeometry x="210.79000000000002" y="159" width="30" height="60" as="geometry" />
        </mxCell>
        <mxCell id="bHEL2EoI4zcogpbZpF7H-2" value="Expériences" style="rounded=0;whiteSpace=wrap;html=1;" parent="1" vertex="1">
          <mxGeometry x="350.79" y="159" width="120" height="60" as="geometry" />
        </mxCell>
        <mxCell id="bHEL2EoI4zcogpbZpF7H-3" value="Matrices de distances génomiques en fonction de type(s) cellulaire(s)" style="rounded=0;whiteSpace=wrap;html=1;" parent="1" vertex="1">
          <mxGeometry x="580.79" y="159" width="120" height="60" as="geometry" />
        </mxCell>
        <mxCell id="bHEL2EoI4zcogpbZpF7H-4" value="" style="endArrow=classic;html=1;rounded=0;entryX=-0.025;entryY=0.487;entryDx=0;entryDy=0;entryPerimeter=0;" parent="1" source="bHEL2EoI4zcogpbZpF7H-1" target="bHEL2EoI4zcogpbZpF7H-2" edge="1">
          <mxGeometry width="50" height="50" relative="1" as="geometry">
            <mxPoint x="440.79" y="299" as="sourcePoint" />
            <mxPoint x="490.79" y="249" as="targetPoint" />
          </mxGeometry>
        </mxCell>
        <mxCell id="bHEL2EoI4zcogpbZpF7H-6" value="Réalise des" style="edgeLabel;html=1;align=center;verticalAlign=middle;resizable=0;points=[];" parent="bHEL2EoI4zcogpbZpF7H-4" vertex="1" connectable="0">
          <mxGeometry x="0.092" y="-1" relative="1" as="geometry">
            <mxPoint x="-9" y="9" as="offset" />
          </mxGeometry>
        </mxCell>
        <mxCell id="bHEL2EoI4zcogpbZpF7H-5" value="" style="endArrow=classic;html=1;rounded=0;entryX=-0.025;entryY=0.487;entryDx=0;entryDy=0;entryPerimeter=0;" parent="1" edge="1">
          <mxGeometry width="50" height="50" relative="1" as="geometry">
            <mxPoint x="470.79" y="189.5" as="sourcePoint" />
            <mxPoint x="577.79" y="188.5" as="targetPoint" />
          </mxGeometry>
        </mxCell>
        <mxCell id="bHEL2EoI4zcogpbZpF7H-9" value="&lt;div&gt;Produisent après analyses&lt;/div&gt;&lt;div&gt;&lt;br&gt;&lt;br&gt;&lt;/div&gt;" style="text;html=1;strokeColor=none;fillColor=none;align=center;verticalAlign=middle;whiteSpace=wrap;rounded=0;" parent="1" vertex="1">
          <mxGeometry x="490.79" y="199" width="80" height="70" as="geometry" />
        </mxCell>
        <mxCell id="bHEL2EoI4zcogpbZpF7H-11" value="Top level" style="text;html=1;strokeColor=none;fillColor=none;align=center;verticalAlign=middle;whiteSpace=wrap;rounded=0;" parent="1" vertex="1">
          <mxGeometry x="425.79" y="109" width="60" height="30" as="geometry" />
        </mxCell>
        <mxCell id="bHEL2EoI4zcogpbZpF7H-12" value="" style="endArrow=none;dashed=1;html=1;rounded=0;exitX=0.004;exitY=0.273;exitDx=0;exitDy=0;exitPerimeter=0;entryX=0.998;entryY=0.195;entryDx=0;entryDy=0;entryPerimeter=0;" parent="1" target="bHEL2EoI4zcogpbZpF7H-10" edge="1">
          <mxGeometry width="50" height="50" relative="1" as="geometry">
            <mxPoint x="173.07" y="137.21999999999997" as="sourcePoint" />
            <mxPoint x="740.79" y="134" as="targetPoint" />
          </mxGeometry>
        </mxCell>
        <mxCell id="bHEL2EoI4zcogpbZpF7H-14" value="&lt;div&gt;Expériences&lt;/div&gt;" style="text;html=1;align=center;verticalAlign=middle;resizable=0;points=[];autosize=1;strokeColor=none;fillColor=none;" parent="1" vertex="1">
          <mxGeometry x="261.47" y="277" width="90" height="30" as="geometry" />
        </mxCell>
        <mxCell id="bHEL2EoI4zcogpbZpF7H-15" value="Expérience" style="rounded=0;whiteSpace=wrap;html=1;" parent="1" vertex="1">
          <mxGeometry x="192.15000000000003" y="309" width="120" height="60" as="geometry" />
        </mxCell>
        <mxCell id="bHEL2EoI4zcogpbZpF7H-16" value="Réplicat(s) biologique(s)" style="rounded=0;whiteSpace=wrap;html=1;" parent="1" vertex="1">
          <mxGeometry x="192.15000000000003" y="389" width="120" height="60" as="geometry" />
        </mxCell>
        <mxCell id="bHEL2EoI4zcogpbZpF7H-18" value="" style="endArrow=none;dashed=1;html=1;rounded=0;exitX=-0.008;exitY=0.169;exitDx=0;exitDy=0;exitPerimeter=0;entryX=1;entryY=0.166;entryDx=0;entryDy=0;entryPerimeter=0;" parent="1" edge="1">
          <mxGeometry width="50" height="50" relative="1" as="geometry">
            <mxPoint x="170.00087999999988" y="303.56000000000006" as="sourcePoint" />
            <mxPoint x="440.7899999999998" y="302.84000000000003" as="targetPoint" />
          </mxGeometry>
        </mxCell>
        <mxCell id="bHEL2EoI4zcogpbZpF7H-19" value="&lt;div&gt;Expérience&lt;/div&gt;" style="text;html=1;align=center;verticalAlign=middle;resizable=0;points=[];autosize=1;strokeColor=none;fillColor=none;" parent="1" vertex="1">
          <mxGeometry x="500.79" y="277" width="80" height="30" as="geometry" />
        </mxCell>
        <mxCell id="bHEL2EoI4zcogpbZpF7H-20" value="&lt;div&gt;Acquisition&lt;/div&gt;" style="rounded=0;whiteSpace=wrap;html=1;" parent="1" vertex="1">
          <mxGeometry x="480.79" y="307" width="120" height="60" as="geometry" />
        </mxCell>
        <mxCell id="bHEL2EoI4zcogpbZpF7H-21" value="Image pre-processing" style="rounded=0;whiteSpace=wrap;html=1;" parent="1" vertex="1">
          <mxGeometry x="480.79" y="379" width="120" height="60" as="geometry" />
        </mxCell>
        <mxCell id="bHEL2EoI4zcogpbZpF7H-22" value="Analyse pyHiM" style="rounded=0;whiteSpace=wrap;html=1;" parent="1" vertex="1">
          <mxGeometry x="480.79" y="449" width="120" height="60" as="geometry" />
        </mxCell>
        <mxCell id="bHEL2EoI4zcogpbZpF7H-23" value="Combine traces with same cell type" style="rounded=0;whiteSpace=wrap;html=1;" parent="1" vertex="1">
          <mxGeometry x="343.29" y="379" width="85" height="40" as="geometry" />
        </mxCell>
        <mxCell id="bHEL2EoI4zcogpbZpF7H-25" value="" style="endArrow=none;dashed=1;html=1;rounded=0;exitX=-0.008;exitY=0.169;exitDx=0;exitDy=0;exitPerimeter=0;entryX=1;entryY=0.166;entryDx=0;entryDy=0;entryPerimeter=0;" parent="1" edge="1">
          <mxGeometry width="50" height="50" relative="1" as="geometry">
            <mxPoint x="459.79" y="300" as="sourcePoint" />
            <mxPoint x="630.79" y="299" as="targetPoint" />
          </mxGeometry>
        </mxCell>
        <mxCell id="bHEL2EoI4zcogpbZpF7H-26" value="&lt;div&gt;Acquistion&lt;/div&gt;" style="text;html=1;align=center;verticalAlign=middle;resizable=0;points=[];autosize=1;strokeColor=none;fillColor=none;" parent="1" vertex="1">
          <mxGeometry x="1120" y="60" width="80" height="30" as="geometry" />
        </mxCell>
        <mxCell id="bHEL2EoI4zcogpbZpF7H-32" value="Cycle DAPI" style="text;whiteSpace=wrap;html=1;" parent="1" vertex="1">
          <mxGeometry x="1130" y="100" width="90" height="40" as="geometry" />
        </mxCell>
        <mxCell id="bHEL2EoI4zcogpbZpF7H-34" value="ch00: DAPI" style="shape=hexagon;perimeter=hexagonPerimeter2;whiteSpace=wrap;html=1;fixedSize=1;" parent="1" vertex="1">
          <mxGeometry x="970" y="128" width="120" height="62" as="geometry" />
        </mxCell>
        <mxCell id="bHEL2EoI4zcogpbZpF7H-35" value="&lt;div&gt;ch01: Fiducial&lt;/div&gt;(Primer or Satellite)" style="shape=hexagon;perimeter=hexagonPerimeter2;whiteSpace=wrap;html=1;fixedSize=1;" parent="1" vertex="1">
          <mxGeometry x="1100" y="127" width="120" height="62" as="geometry" />
        </mxCell>
        <mxCell id="bHEL2EoI4zcogpbZpF7H-36" value="ch02: RNA" style="shape=hexagon;perimeter=hexagonPerimeter2;whiteSpace=wrap;html=1;fixedSize=1;dashed=1;" parent="1" vertex="1">
          <mxGeometry x="1230" y="126" width="120" height="63" as="geometry" />
        </mxCell>
        <mxCell id="bHEL2EoI4zcogpbZpF7H-38" value="" style="rounded=0;whiteSpace=wrap;html=1;" parent="1" vertex="1">
          <mxGeometry x="960" y="210" width="400" height="100" as="geometry" />
        </mxCell>
        <mxCell id="bHEL2EoI4zcogpbZpF7H-39" value="Cycle mask" style="text;whiteSpace=wrap;html=1;" parent="1" vertex="1">
          <mxGeometry x="1130" y="210" width="90" height="40" as="geometry" />
        </mxCell>
        <mxCell id="bHEL2EoI4zcogpbZpF7H-40" value="ch00: Fiducial" style="shape=hexagon;perimeter=hexagonPerimeter2;whiteSpace=wrap;html=1;fixedSize=1;" parent="1" vertex="1">
          <mxGeometry x="1000" y="238" width="120" height="62" as="geometry" />
        </mxCell>
        <mxCell id="bHEL2EoI4zcogpbZpF7H-41" value="&lt;div&gt;ch01: mask&lt;/div&gt;" style="shape=hexagon;perimeter=hexagonPerimeter2;whiteSpace=wrap;html=1;fixedSize=1;" parent="1" vertex="1">
          <mxGeometry x="1190" y="238" width="120" height="62" as="geometry" />
        </mxCell>
        <mxCell id="bHEL2EoI4zcogpbZpF7H-43" value="" style="rounded=0;whiteSpace=wrap;html=1;" parent="1" vertex="1">
          <mxGeometry x="960" y="320" width="400" height="100" as="geometry" />
        </mxCell>
        <mxCell id="bHEL2EoI4zcogpbZpF7H-44" value="Cycle barcode" style="text;whiteSpace=wrap;html=1;" parent="1" vertex="1">
          <mxGeometry x="1130" y="320" width="90" height="40" as="geometry" />
        </mxCell>
        <mxCell id="bHEL2EoI4zcogpbZpF7H-45" value="ch00: Fiducial" style="shape=hexagon;perimeter=hexagonPerimeter2;whiteSpace=wrap;html=1;fixedSize=1;" parent="1" vertex="1">
          <mxGeometry x="1000" y="348" width="120" height="62" as="geometry" />
        </mxCell>
        <mxCell id="bHEL2EoI4zcogpbZpF7H-46" value="&lt;div&gt;ch01: RT&lt;/div&gt;" style="shape=hexagon;perimeter=hexagonPerimeter2;whiteSpace=wrap;html=1;fixedSize=1;" parent="1" vertex="1">
          <mxGeometry x="1190" y="348" width="120" height="62" as="geometry" />
        </mxCell>
        <mxCell id="bHEL2EoI4zcogpbZpF7H-50" value="Traces" style="rounded=0;whiteSpace=wrap;html=1;" parent="1" vertex="1">
          <mxGeometry x="345.79" y="319" width="80" height="40" as="geometry" />
        </mxCell>
        <mxCell id="bHEL2EoI4zcogpbZpF7H-51" value="" style="endArrow=classic;html=1;rounded=0;exitX=1;exitY=0.5;exitDx=0;exitDy=0;entryX=0;entryY=0.5;entryDx=0;entryDy=0;" parent="1" source="bHEL2EoI4zcogpbZpF7H-15" target="bHEL2EoI4zcogpbZpF7H-50" edge="1">
          <mxGeometry width="50" height="50" relative="1" as="geometry">
            <mxPoint x="390.79" y="529" as="sourcePoint" />
            <mxPoint x="440.79" y="479" as="targetPoint" />
          </mxGeometry>
        </mxCell>
        <mxCell id="bHEL2EoI4zcogpbZpF7H-52" value="" style="endArrow=classic;html=1;rounded=0;exitX=1;exitY=0.5;exitDx=0;exitDy=0;entryX=0;entryY=0.75;entryDx=0;entryDy=0;" parent="1" source="bHEL2EoI4zcogpbZpF7H-16" target="bHEL2EoI4zcogpbZpF7H-50" edge="1">
          <mxGeometry width="50" height="50" relative="1" as="geometry">
            <mxPoint x="321.79" y="349" as="sourcePoint" />
            <mxPoint x="360.79" y="389" as="targetPoint" />
          </mxGeometry>
        </mxCell>
        <mxCell id="bHEL2EoI4zcogpbZpF7H-53" value="" style="endArrow=classic;html=1;rounded=0;exitX=0.5;exitY=1;exitDx=0;exitDy=0;entryX=0.5;entryY=0;entryDx=0;entryDy=0;" parent="1" source="bHEL2EoI4zcogpbZpF7H-50" target="bHEL2EoI4zcogpbZpF7H-23" edge="1">
          <mxGeometry width="50" height="50" relative="1" as="geometry">
            <mxPoint x="390.79" y="529" as="sourcePoint" />
            <mxPoint x="440.79" y="479" as="targetPoint" />
          </mxGeometry>
        </mxCell>
        <mxCell id="bHEL2EoI4zcogpbZpF7H-54" value="Traces analysis" style="rounded=0;whiteSpace=wrap;html=1;" parent="1" vertex="1">
          <mxGeometry x="480.79" y="519" width="120" height="50" as="geometry" />
        </mxCell>
        <mxCell id="bHEL2EoI4zcogpbZpF7H-55" value="Raw 4D images" style="whiteSpace=wrap;html=1;aspect=fixed;" parent="1" vertex="1">
          <mxGeometry x="1410" y="210" width="100" height="100" as="geometry" />
        </mxCell>
        <mxCell id="bHEL2EoI4zcogpbZpF7H-56" value="" style="endArrow=classic;html=1;rounded=0;exitX=1;exitY=0.5;exitDx=0;exitDy=0;entryX=0;entryY=0;entryDx=0;entryDy=0;" parent="1" source="bHEL2EoI4zcogpbZpF7H-37" target="bHEL2EoI4zcogpbZpF7H-55" edge="1">
          <mxGeometry width="50" height="50" relative="1" as="geometry">
            <mxPoint x="1070" y="300" as="sourcePoint" />
            <mxPoint x="1120" y="250" as="targetPoint" />
          </mxGeometry>
        </mxCell>
        <mxCell id="bHEL2EoI4zcogpbZpF7H-57" value="" style="endArrow=classic;html=1;rounded=0;exitX=1;exitY=0.5;exitDx=0;exitDy=0;entryX=0;entryY=0.5;entryDx=0;entryDy=0;" parent="1" source="bHEL2EoI4zcogpbZpF7H-38" target="bHEL2EoI4zcogpbZpF7H-55" edge="1">
          <mxGeometry width="50" height="50" relative="1" as="geometry">
            <mxPoint x="1376" y="161" as="sourcePoint" />
            <mxPoint x="1420" y="220" as="targetPoint" />
          </mxGeometry>
        </mxCell>
        <mxCell id="bHEL2EoI4zcogpbZpF7H-58" value="" style="endArrow=classic;html=1;rounded=0;exitX=1;exitY=0.5;exitDx=0;exitDy=0;entryX=0;entryY=1;entryDx=0;entryDy=0;" parent="1" source="bHEL2EoI4zcogpbZpF7H-43" target="bHEL2EoI4zcogpbZpF7H-55" edge="1">
          <mxGeometry width="50" height="50" relative="1" as="geometry">
            <mxPoint x="1370" y="270" as="sourcePoint" />
            <mxPoint x="1420" y="270" as="targetPoint" />
          </mxGeometry>
        </mxCell>
        <mxCell id="bHEL2EoI4zcogpbZpF7H-59" value="Raw 4D images of Région of Interest (ROI)" style="rounded=0;whiteSpace=wrap;html=1;" parent="1" vertex="1">
          <mxGeometry x="871" y="645" width="120" height="60" as="geometry" />
        </mxCell>
        <mxCell id="bHEL2EoI4zcogpbZpF7H-60" value="" style="endArrow=classic;html=1;rounded=0;entryX=0.5;entryY=0;entryDx=0;entryDy=0;exitX=0.103;exitY=1.006;exitDx=0;exitDy=0;exitPerimeter=0;" parent="1" source="bHEL2EoI4zcogpbZpF7H-47" target="bHEL2EoI4zcogpbZpF7H-59" edge="1">
          <mxGeometry width="50" height="50" relative="1" as="geometry">
            <mxPoint x="630" y="730" as="sourcePoint" />
            <mxPoint x="680" y="680" as="targetPoint" />
          </mxGeometry>
        </mxCell>
        <mxCell id="bHEL2EoI4zcogpbZpF7H-62" value="Split by channel into 3D images" style="rounded=0;whiteSpace=wrap;html=1;" parent="1" vertex="1">
          <mxGeometry x="1070" y="620" width="120" height="60" as="geometry" />
        </mxCell>
        <mxCell id="bHEL2EoI4zcogpbZpF7H-63" value="Deconvolve images" style="rounded=0;whiteSpace=wrap;html=1;" parent="1" vertex="1">
          <mxGeometry x="1070" y="699" width="120" height="60" as="geometry" />
        </mxCell>
        <mxCell id="bHEL2EoI4zcogpbZpF7H-64" value="Image pre-processing" style="text;whiteSpace=wrap;html=1;" parent="1" vertex="1">
          <mxGeometry x="1070" y="565" width="150" height="40" as="geometry" />
        </mxCell>
        <mxCell id="bHEL2EoI4zcogpbZpF7H-66" value="Deconvolve 3D images of ROI" style="rounded=0;whiteSpace=wrap;html=1;" parent="1" vertex="1">
          <mxGeometry x="1240" y="650" width="120" height="60" as="geometry" />
        </mxCell>
        <mxCell id="bHEL2EoI4zcogpbZpF7H-67" value="" style="endArrow=classic;html=1;rounded=0;entryX=0;entryY=0.5;entryDx=0;entryDy=0;exitX=1.003;exitY=0.511;exitDx=0;exitDy=0;exitPerimeter=0;" parent="1" edge="1">
          <mxGeometry width="50" height="50" relative="1" as="geometry">
            <mxPoint x="991" y="674.58" as="sourcePoint" />
            <mxPoint x="1039" y="674.58" as="targetPoint" />
          </mxGeometry>
        </mxCell>
        <mxCell id="bHEL2EoI4zcogpbZpF7H-68" value="" style="endArrow=classic;html=1;rounded=0;exitX=1.015;exitY=0.533;exitDx=0;exitDy=0;exitPerimeter=0;" parent="1" source="bHEL2EoI4zcogpbZpF7H-65" edge="1">
          <mxGeometry width="50" height="50" relative="1" as="geometry">
            <mxPoint x="992" y="759" as="sourcePoint" />
            <mxPoint x="1240" y="678" as="targetPoint" />
          </mxGeometry>
        </mxCell>
        <mxCell id="bHEL2EoI4zcogpbZpF7H-69" value="Prepare analyse pyHiM" style="text;whiteSpace=wrap;html=1;" parent="1" vertex="1">
          <mxGeometry x="1430" y="569" width="140" height="40" as="geometry" />
        </mxCell>
        <mxCell id="bHEL2EoI4zcogpbZpF7H-70" value="Extract sub-volume of images" style="rounded=0;whiteSpace=wrap;html=1;" parent="1" vertex="1">
          <mxGeometry x="1430" y="609" width="120" height="60" as="geometry" />
        </mxCell>
        <mxCell id="bHEL2EoI4zcogpbZpF7H-71" value="Find best analysis settings" style="rounded=0;whiteSpace=wrap;html=1;" parent="1" vertex="1">
          <mxGeometry x="1430" y="704" width="120" height="60" as="geometry" />
        </mxCell>
        <mxCell id="bHEL2EoI4zcogpbZpF7H-72" value="" style="endArrow=classic;html=1;rounded=0;entryX=0.5;entryY=0;entryDx=0;entryDy=0;" parent="1" target="bHEL2EoI4zcogpbZpF7H-71" edge="1">
          <mxGeometry width="50" height="50" relative="1" as="geometry">
            <mxPoint x="1490" y="670" as="sourcePoint" />
            <mxPoint x="1310" y="770" as="targetPoint" />
          </mxGeometry>
        </mxCell>
        <mxCell id="bHEL2EoI4zcogpbZpF7H-73" value="" style="endArrow=classic;html=1;rounded=0;entryX=0;entryY=0.5;entryDx=0;entryDy=0;exitX=1.026;exitY=0.412;exitDx=0;exitDy=0;exitPerimeter=0;" parent="1" source="bHEL2EoI4zcogpbZpF7H-66" target="bHEL2EoI4zcogpbZpF7H-70" edge="1">
          <mxGeometry width="50" height="50" relative="1" as="geometry">
            <mxPoint x="1290" y="710" as="sourcePoint" />
            <mxPoint x="1340" y="660" as="targetPoint" />
          </mxGeometry>
        </mxCell>
        <mxCell id="bHEL2EoI4zcogpbZpF7H-74" value="parameters.json" style="rounded=0;whiteSpace=wrap;html=1;" parent="1" vertex="1">
          <mxGeometry x="1420" y="850" width="120" height="60" as="geometry" />
        </mxCell>
        <mxCell id="bHEL2EoI4zcogpbZpF7H-75" value="" style="endArrow=classic;html=1;rounded=0;entryX=0.5;entryY=0;entryDx=0;entryDy=0;exitX=0.438;exitY=1.003;exitDx=0;exitDy=0;exitPerimeter=0;" parent="1" source="bHEL2EoI4zcogpbZpF7H-76" target="bHEL2EoI4zcogpbZpF7H-74" edge="1">
          <mxGeometry width="50" height="50" relative="1" as="geometry">
            <mxPoint x="1498.58" y="924" as="sourcePoint" />
            <mxPoint x="1498.58" y="958" as="targetPoint" />
          </mxGeometry>
        </mxCell>
        <mxCell id="bHEL2EoI4zcogpbZpF7H-77" value="&lt;div&gt;Analyse pyHiM&lt;/div&gt;" style="text;html=1;align=center;verticalAlign=middle;resizable=0;points=[];autosize=1;strokeColor=none;fillColor=none;" parent="1" vertex="1">
          <mxGeometry x="400" y="1296" width="100" height="30" as="geometry" />
        </mxCell>
        <mxCell id="bHEL2EoI4zcogpbZpF7H-78" value="" style="rounded=0;whiteSpace=wrap;html=1;" parent="1" vertex="1">
          <mxGeometry x="169" y="1348" width="170" height="390" as="geometry" />
        </mxCell>
        <mxCell id="bHEL2EoI4zcogpbZpF7H-79" value="Fiducial workflow" style="text;html=1;strokeColor=none;fillColor=none;align=center;verticalAlign=middle;whiteSpace=wrap;rounded=0;" parent="1" vertex="1">
          <mxGeometry x="227" y="1358" width="60" height="60" as="geometry" />
        </mxCell>
        <mxCell id="bHEL2EoI4zcogpbZpF7H-80" value="&lt;div&gt;Reduce noise&amp;nbsp;&lt;/div&gt;&lt;div&gt;(remove background)&lt;/div&gt;" style="shape=hexagon;perimeter=hexagonPerimeter2;whiteSpace=wrap;html=1;fixedSize=1;" parent="1" vertex="1">
          <mxGeometry x="189" y="1418" width="130" height="80" as="geometry" />
        </mxCell>
        <mxCell id="bHEL2EoI4zcogpbZpF7H-81" value="Improuve contrast" style="shape=hexagon;perimeter=hexagonPerimeter2;whiteSpace=wrap;html=1;fixedSize=1;" parent="1" vertex="1">
          <mxGeometry x="189" y="1528" width="130" height="80" as="geometry" />
        </mxCell>
        <mxCell id="bHEL2EoI4zcogpbZpF7H-82" value="Register images" style="shape=hexagon;perimeter=hexagonPerimeter2;whiteSpace=wrap;html=1;fixedSize=1;" parent="1" vertex="1">
          <mxGeometry x="184" y="1638" width="130" height="80" as="geometry" />
        </mxCell>
        <mxCell id="bHEL2EoI4zcogpbZpF7H-85" value="shifts.json" style="rounded=0;whiteSpace=wrap;html=1;" parent="1" vertex="1">
          <mxGeometry x="380" y="1648" width="120" height="60" as="geometry" />
        </mxCell>
        <mxCell id="bHEL2EoI4zcogpbZpF7H-86" value="" style="endArrow=classic;html=1;rounded=0;entryX=0;entryY=0.5;entryDx=0;entryDy=0;" parent="1" source="bHEL2EoI4zcogpbZpF7H-82" target="bHEL2EoI4zcogpbZpF7H-85" edge="1">
          <mxGeometry width="50" height="50" relative="1" as="geometry">
            <mxPoint x="450" y="1778" as="sourcePoint" />
            <mxPoint x="340" y="1498" as="targetPoint" />
          </mxGeometry>
        </mxCell>
        <mxCell id="bHEL2EoI4zcogpbZpF7H-87" value="" style="rounded=0;whiteSpace=wrap;html=1;" parent="1" vertex="1">
          <mxGeometry x="540" y="1348" width="170" height="620" as="geometry" />
        </mxCell>
        <mxCell id="bHEL2EoI4zcogpbZpF7H-88" value="Spot &amp;amp; mask workflow" style="text;html=1;strokeColor=none;fillColor=none;align=center;verticalAlign=middle;whiteSpace=wrap;rounded=0;" parent="1" vertex="1">
          <mxGeometry x="598" y="1358" width="72" height="60" as="geometry" />
        </mxCell>
        <mxCell id="bHEL2EoI4zcogpbZpF7H-89" value="&lt;div&gt;Reduce noise&amp;nbsp;&lt;/div&gt;&lt;div&gt;(remove background)&lt;/div&gt;" style="shape=hexagon;perimeter=hexagonPerimeter2;whiteSpace=wrap;html=1;fixedSize=1;" parent="1" vertex="1">
          <mxGeometry x="560" y="1418" width="130" height="80" as="geometry" />
        </mxCell>
        <mxCell id="bHEL2EoI4zcogpbZpF7H-90" value="Improuve contrast" style="shape=hexagon;perimeter=hexagonPerimeter2;whiteSpace=wrap;html=1;fixedSize=1;" parent="1" vertex="1">
          <mxGeometry x="560" y="1528" width="130" height="80" as="geometry" />
        </mxCell>
        <mxCell id="bHEL2EoI4zcogpbZpF7H-91" value="Apply registration" style="shape=hexagon;perimeter=hexagonPerimeter2;whiteSpace=wrap;html=1;fixedSize=1;" parent="1" vertex="1">
          <mxGeometry x="555" y="1638" width="130" height="80" as="geometry" />
        </mxCell>
        <mxCell id="bHEL2EoI4zcogpbZpF7H-92" value="Segment objects" style="shape=hexagon;perimeter=hexagonPerimeter2;whiteSpace=wrap;html=1;fixedSize=1;" parent="1" vertex="1">
          <mxGeometry x="555" y="1748" width="130" height="80" as="geometry" />
        </mxCell>
        <mxCell id="bHEL2EoI4zcogpbZpF7H-93" value="Extract object data" style="shape=hexagon;perimeter=hexagonPerimeter2;whiteSpace=wrap;html=1;fixedSize=1;" parent="1" vertex="1">
          <mxGeometry x="555" y="1858" width="130" height="80" as="geometry" />
        </mxCell>
        <mxCell id="bHEL2EoI4zcogpbZpF7H-94" value="" style="endArrow=classic;html=1;rounded=0;" parent="1" edge="1">
          <mxGeometry width="50" height="50" relative="1" as="geometry">
            <mxPoint x="500" y="1677.58" as="sourcePoint" />
            <mxPoint x="550" y="1678" as="targetPoint" />
          </mxGeometry>
        </mxCell>
        <mxCell id="bHEL2EoI4zcogpbZpF7H-95" value="data tables" style="rounded=0;whiteSpace=wrap;html=1;" parent="1" vertex="1">
          <mxGeometry x="380" y="1838" width="120" height="60" as="geometry" />
        </mxCell>
        <mxCell id="bHEL2EoI4zcogpbZpF7H-96" value="Labeled mask" style="rounded=0;whiteSpace=wrap;html=1;" parent="1" vertex="1">
          <mxGeometry x="380" y="1918" width="120" height="60" as="geometry" />
        </mxCell>
        <mxCell id="bHEL2EoI4zcogpbZpF7H-97" value="" style="rounded=0;whiteSpace=wrap;html=1;" parent="1" vertex="1">
          <mxGeometry x="169" y="1764" width="170" height="290" as="geometry" />
        </mxCell>
        <mxCell id="bHEL2EoI4zcogpbZpF7H-98" value="Data workflow" style="text;html=1;strokeColor=none;fillColor=none;align=center;verticalAlign=middle;whiteSpace=wrap;rounded=0;" parent="1" vertex="1">
          <mxGeometry x="227" y="1774" width="60" height="60" as="geometry" />
        </mxCell>
        <mxCell id="bHEL2EoI4zcogpbZpF7H-99" value="Filter data" style="shape=hexagon;perimeter=hexagonPerimeter2;whiteSpace=wrap;html=1;fixedSize=1;" parent="1" vertex="1">
          <mxGeometry x="189" y="1834" width="130" height="60" as="geometry" />
        </mxCell>
        <mxCell id="bHEL2EoI4zcogpbZpF7H-100" value="Labeled data" style="shape=hexagon;perimeter=hexagonPerimeter2;whiteSpace=wrap;html=1;fixedSize=1;" parent="1" vertex="1">
          <mxGeometry x="189" y="1924" width="130" height="50" as="geometry" />
        </mxCell>
        <mxCell id="bHEL2EoI4zcogpbZpF7H-101" value="Plot matrices" style="shape=hexagon;perimeter=hexagonPerimeter2;whiteSpace=wrap;html=1;fixedSize=1;" parent="1" vertex="1">
          <mxGeometry x="184" y="1994" width="130" height="50" as="geometry" />
        </mxCell>
        <mxCell id="bHEL2EoI4zcogpbZpF7H-102" value="" style="endArrow=classic;html=1;rounded=0;exitX=0;exitY=0.5;exitDx=0;exitDy=0;entryX=1;entryY=0.5;entryDx=0;entryDy=0;" parent="1" source="bHEL2EoI4zcogpbZpF7H-95" target="bHEL2EoI4zcogpbZpF7H-99" edge="1">
          <mxGeometry width="50" height="50" relative="1" as="geometry">
            <mxPoint x="170" y="1888" as="sourcePoint" />
            <mxPoint x="220" y="1838" as="targetPoint" />
          </mxGeometry>
        </mxCell>
        <mxCell id="bHEL2EoI4zcogpbZpF7H-103" value="" style="endArrow=classic;html=1;rounded=0;exitX=0;exitY=0.5;exitDx=0;exitDy=0;entryX=1;entryY=0.25;entryDx=0;entryDy=0;" parent="1" target="bHEL2EoI4zcogpbZpF7H-100" edge="1">
          <mxGeometry width="50" height="50" relative="1" as="geometry">
            <mxPoint x="380" y="1948" as="sourcePoint" />
            <mxPoint x="319" y="1968" as="targetPoint" />
          </mxGeometry>
        </mxCell>
        <mxCell id="bHEL2EoI4zcogpbZpF7H-104" value="" style="endArrow=classic;html=1;rounded=0;exitX=0.5;exitY=1;exitDx=0;exitDy=0;entryX=0.5;entryY=0;entryDx=0;entryDy=0;" parent="1" source="bHEL2EoI4zcogpbZpF7H-99" target="bHEL2EoI4zcogpbZpF7H-100" edge="1">
          <mxGeometry width="50" height="50" relative="1" as="geometry">
            <mxPoint x="390" y="1944" as="sourcePoint" />
            <mxPoint x="320" y="1977" as="targetPoint" />
          </mxGeometry>
        </mxCell>
        <mxCell id="bHEL2EoI4zcogpbZpF7H-105" value="Traces" style="rounded=0;whiteSpace=wrap;html=1;" parent="1" vertex="1">
          <mxGeometry x="200.79" y="2108" width="120" height="60" as="geometry" />
        </mxCell>
        <mxCell id="bHEL2EoI4zcogpbZpF7H-106" value="" style="endArrow=classic;html=1;rounded=0;exitX=0.548;exitY=0.999;exitDx=0;exitDy=0;exitPerimeter=0;entryX=0.5;entryY=0;entryDx=0;entryDy=0;" parent="1" source="bHEL2EoI4zcogpbZpF7H-97" target="bHEL2EoI4zcogpbZpF7H-105" edge="1">
          <mxGeometry width="50" height="50" relative="1" as="geometry">
            <mxPoint x="170" y="1988" as="sourcePoint" />
            <mxPoint x="220" y="1938" as="targetPoint" />
          </mxGeometry>
        </mxCell>
        <mxCell id="bHEL2EoI4zcogpbZpF7H-108" value="Traces analysis" style="text;whiteSpace=wrap;html=1;" parent="1" vertex="1">
          <mxGeometry x="300.78999999999996" y="620" width="120" height="40" as="geometry" />
        </mxCell>
        <mxCell id="bHEL2EoI4zcogpbZpF7H-109" value="Split traces file by label" style="rounded=0;whiteSpace=wrap;html=1;" parent="1" vertex="1">
          <mxGeometry x="280.78999999999996" y="650" width="120" height="60" as="geometry" />
        </mxCell>
        <mxCell id="bHEL2EoI4zcogpbZpF7H-110" value="&lt;div&gt;Check quality of HiMmatrix.png for each set of traces&lt;br&gt;&lt;/div&gt;" style="rounded=0;whiteSpace=wrap;html=1;" parent="1" vertex="1">
          <mxGeometry x="280.78999999999996" y="730" width="120" height="60" as="geometry" />
        </mxCell>
        <mxCell id="bHEL2EoI4zcogpbZpF7H-111" value="Filtrer les traces avec un nombre de barcode minimum" style="rounded=0;whiteSpace=wrap;html=1;" parent="1" vertex="1">
          <mxGeometry x="280.78999999999996" y="890" width="120" height="60" as="geometry" />
        </mxCell>
        <mxCell id="bHEL2EoI4zcogpbZpF7H-112" value="Suppression des barcodes répétés" style="rounded=0;whiteSpace=wrap;html=1;" parent="1" vertex="1">
          <mxGeometry x="280.78999999999996" y="810" width="120" height="60" as="geometry" />
        </mxCell>
        <mxCell id="bHEL2EoI4zcogpbZpF7H-113" value="Compare cell types" style="rounded=0;whiteSpace=wrap;html=1;" parent="1" vertex="1">
          <mxGeometry x="343.29" y="439" width="85" height="40" as="geometry" />
        </mxCell>
        <mxCell id="bHEL2EoI4zcogpbZpF7H-114" value="" style="endArrow=classic;html=1;rounded=0;exitX=0.5;exitY=1;exitDx=0;exitDy=0;entryX=0.5;entryY=0;entryDx=0;entryDy=0;" parent="1" target="bHEL2EoI4zcogpbZpF7H-113" edge="1">
          <mxGeometry width="50" height="50" relative="1" as="geometry">
            <mxPoint x="385.79" y="419" as="sourcePoint" />
            <mxPoint x="440.79" y="539" as="targetPoint" />
          </mxGeometry>
        </mxCell>
        <mxCell id="bHEL2EoI4zcogpbZpF7H-116" value="Traces" style="rounded=0;whiteSpace=wrap;html=1;" parent="1" vertex="1">
          <mxGeometry x="90.78999999999996" y="760" width="120" height="60" as="geometry" />
        </mxCell>
        <mxCell id="bHEL2EoI4zcogpbZpF7H-117" value="Analysed traces" style="rounded=0;whiteSpace=wrap;html=1;" parent="1" vertex="1">
          <mxGeometry x="480.78999999999996" y="760" width="120" height="60" as="geometry" />
        </mxCell>
        <mxCell id="bHEL2EoI4zcogpbZpF7H-118" value="" style="endArrow=classic;html=1;rounded=0;exitX=1;exitY=0.5;exitDx=0;exitDy=0;entryX=-0.02;entryY=0.486;entryDx=0;entryDy=0;entryPerimeter=0;" parent="1" source="bHEL2EoI4zcogpbZpF7H-116" target="bHEL2EoI4zcogpbZpF7H-115" edge="1">
          <mxGeometry width="50" height="50" relative="1" as="geometry">
            <mxPoint x="120.78999999999996" y="810" as="sourcePoint" />
            <mxPoint x="170.78999999999996" y="760" as="targetPoint" />
          </mxGeometry>
        </mxCell>
        <mxCell id="bHEL2EoI4zcogpbZpF7H-119" value="" style="endArrow=classic;html=1;rounded=0;exitX=1;exitY=0.5;exitDx=0;exitDy=0;entryX=-0.02;entryY=0.486;entryDx=0;entryDy=0;entryPerimeter=0;" parent="1" edge="1">
          <mxGeometry width="50" height="50" relative="1" as="geometry">
            <mxPoint x="433.78999999999996" y="790" as="sourcePoint" />
            <mxPoint x="480.78999999999996" y="790" as="targetPoint" />
          </mxGeometry>
        </mxCell>
        <mxCell id="bHEL2EoI4zcogpbZpF7H-120" value="Deconvolve 3D images of ROI" style="rounded=0;whiteSpace=wrap;html=1;" parent="1" vertex="1">
          <mxGeometry x="261.47" y="1166" width="120" height="60" as="geometry" />
        </mxCell>
        <mxCell id="bHEL2EoI4zcogpbZpF7H-121" value="parameters.json" style="rounded=0;whiteSpace=wrap;html=1;" parent="1" vertex="1">
          <mxGeometry x="478" y="1166" width="120" height="60" as="geometry" />
        </mxCell>
        <mxCell id="bHEL2EoI4zcogpbZpF7H-122" value="" style="endArrow=classic;html=1;rounded=0;exitX=0.5;exitY=1;exitDx=0;exitDy=0;entryX=0.318;entryY=0;entryDx=0;entryDy=0;entryPerimeter=0;" parent="1" source="bHEL2EoI4zcogpbZpF7H-120" target="bHEL2EoI4zcogpbZpF7H-107" edge="1">
          <mxGeometry width="50" height="50" relative="1" as="geometry">
            <mxPoint x="420" y="1196" as="sourcePoint" />
            <mxPoint x="470" y="1146" as="targetPoint" />
          </mxGeometry>
        </mxCell>
        <mxCell id="bHEL2EoI4zcogpbZpF7H-123" value="" style="endArrow=classic;html=1;rounded=0;exitX=0.5;exitY=1;exitDx=0;exitDy=0;entryX=0.318;entryY=0;entryDx=0;entryDy=0;entryPerimeter=0;" parent="1" edge="1">
          <mxGeometry width="50" height="50" relative="1" as="geometry">
            <mxPoint x="541.29" y="1226" as="sourcePoint" />
            <mxPoint x="540.29" y="1296" as="targetPoint" />
          </mxGeometry>
        </mxCell>
        <mxCell id="-e5JYh3tk_dBkfc9BK_Y-273" style="edgeStyle=orthogonalEdgeStyle;rounded=0;orthogonalLoop=1;jettySize=auto;html=1;entryX=0.5;entryY=0;entryDx=0;entryDy=0;fillColor=none;" parent="1" source="bHEL2EoI4zcogpbZpF7H-124" target="bHEL2EoI4zcogpbZpF7H-126" edge="1">
          <mxGeometry relative="1" as="geometry" />
        </mxCell>
        <mxCell id="bHEL2EoI4zcogpbZpF7H-124" value="project" style="rounded=0;whiteSpace=wrap;html=1;fillColor=none;" parent="1" vertex="1">
          <mxGeometry x="883" y="1236" width="120" height="60" as="geometry" />
        </mxCell>
        <mxCell id="-e5JYh3tk_dBkfc9BK_Y-272" style="edgeStyle=orthogonalEdgeStyle;rounded=0;orthogonalLoop=1;jettySize=auto;html=1;entryX=0.5;entryY=0;entryDx=0;entryDy=0;fillColor=none;" parent="1" source="bHEL2EoI4zcogpbZpF7H-125" target="bHEL2EoI4zcogpbZpF7H-124" edge="1">
          <mxGeometry relative="1" as="geometry" />
        </mxCell>
        <mxCell id="bHEL2EoI4zcogpbZpF7H-125" value="3D image" style="ellipse;whiteSpace=wrap;html=1;fillColor=none;" parent="1" vertex="1">
          <mxGeometry x="898.5" y="1166" width="89" height="40" as="geometry" />
        </mxCell>
        <mxCell id="bHEL2EoI4zcogpbZpF7H-126" value="2D image" style="ellipse;whiteSpace=wrap;html=1;fillColor=none;" parent="1" vertex="1">
          <mxGeometry x="898.5" y="1326" width="89" height="40" as="geometry" />
        </mxCell>
        <mxCell id="-e5JYh3tk_dBkfc9BK_Y-283" style="edgeStyle=orthogonalEdgeStyle;rounded=0;orthogonalLoop=1;jettySize=auto;html=1;entryX=0.5;entryY=0;entryDx=0;entryDy=0;fillColor=none;" parent="1" source="bHEL2EoI4zcogpbZpF7H-127" target="bHEL2EoI4zcogpbZpF7H-129" edge="1">
          <mxGeometry relative="1" as="geometry" />
        </mxCell>
        <mxCell id="bHEL2EoI4zcogpbZpF7H-127" value="Shift" style="rounded=0;whiteSpace=wrap;html=1;fillColor=none;" parent="1" vertex="1">
          <mxGeometry x="1296.85" y="1236" width="120" height="60" as="geometry" />
        </mxCell>
        <mxCell id="bHEL2EoI4zcogpbZpF7H-129" value="shifted 3D image" style="ellipse;whiteSpace=wrap;html=1;fillColor=none;" parent="1" vertex="1">
          <mxGeometry x="1307.1" y="1320" width="99.5" height="46" as="geometry" />
        </mxCell>
        <mxCell id="-e5JYh3tk_dBkfc9BK_Y-278" style="edgeStyle=orthogonalEdgeStyle;rounded=0;orthogonalLoop=1;jettySize=auto;html=1;fillColor=none;" parent="1" source="bHEL2EoI4zcogpbZpF7H-130" target="bHEL2EoI4zcogpbZpF7H-132" edge="1">
          <mxGeometry relative="1" as="geometry" />
        </mxCell>
        <mxCell id="bHEL2EoI4zcogpbZpF7H-130" value="register_global" style="rounded=0;whiteSpace=wrap;html=1;fillColor=none;" parent="1" vertex="1">
          <mxGeometry x="1076.79" y="1236" width="120" height="60" as="geometry" />
        </mxCell>
        <mxCell id="-e5JYh3tk_dBkfc9BK_Y-275" style="edgeStyle=orthogonalEdgeStyle;rounded=0;orthogonalLoop=1;jettySize=auto;html=1;fillColor=none;" parent="1" source="bHEL2EoI4zcogpbZpF7H-131" target="bHEL2EoI4zcogpbZpF7H-130" edge="1">
          <mxGeometry relative="1" as="geometry">
            <Array as="points">
              <mxPoint x="1087" y="1226" />
              <mxPoint x="1087" y="1226" />
            </Array>
          </mxGeometry>
        </mxCell>
        <mxCell id="bHEL2EoI4zcogpbZpF7H-131" value="2D image" style="ellipse;whiteSpace=wrap;html=1;fillColor=none;" parent="1" vertex="1">
          <mxGeometry x="1042.9299999999998" y="1166" width="89" height="40" as="geometry" />
        </mxCell>
        <mxCell id="bHEL2EoI4zcogpbZpF7H-132" value="(X,Y) shift" style="ellipse;whiteSpace=wrap;html=1;fillColor=none;" parent="1" vertex="1">
          <mxGeometry x="1092.29" y="1326" width="89" height="40" as="geometry" />
        </mxCell>
        <mxCell id="-e5JYh3tk_dBkfc9BK_Y-292" style="edgeStyle=orthogonalEdgeStyle;rounded=0;orthogonalLoop=1;jettySize=auto;html=1;entryX=0.5;entryY=0;entryDx=0;entryDy=0;fillColor=none;" parent="1" source="bHEL2EoI4zcogpbZpF7H-133" target="bHEL2EoI4zcogpbZpF7H-135" edge="1">
          <mxGeometry relative="1" as="geometry" />
        </mxCell>
        <mxCell id="bHEL2EoI4zcogpbZpF7H-133" value="segment" style="rounded=0;whiteSpace=wrap;html=1;fillColor=none;" parent="1" vertex="1">
          <mxGeometry x="880" y="1603" width="120" height="60" as="geometry" />
        </mxCell>
        <mxCell id="-e5JYh3tk_dBkfc9BK_Y-291" style="edgeStyle=orthogonalEdgeStyle;rounded=0;orthogonalLoop=1;jettySize=auto;html=1;entryX=0.5;entryY=0;entryDx=0;entryDy=0;fillColor=none;" parent="1" source="bHEL2EoI4zcogpbZpF7H-134" target="bHEL2EoI4zcogpbZpF7H-133" edge="1">
          <mxGeometry relative="1" as="geometry" />
        </mxCell>
        <mxCell id="bHEL2EoI4zcogpbZpF7H-134" value="3D image" style="ellipse;whiteSpace=wrap;html=1;fillColor=none;" parent="1" vertex="1">
          <mxGeometry x="895.5000000000002" y="1533" width="89" height="40" as="geometry" />
        </mxCell>
        <mxCell id="bHEL2EoI4zcogpbZpF7H-135" value="Segmented 3D image" style="ellipse;whiteSpace=wrap;html=1;fillColor=none;" parent="1" vertex="1">
          <mxGeometry x="889.25" y="1690" width="101.5" height="48" as="geometry" />
        </mxCell>
        <mxCell id="bHEL2EoI4zcogpbZpF7H-178" value="Parameters" style="swimlane;fontStyle=1;align=center;verticalAlign=top;childLayout=stackLayout;horizontal=1;startSize=26;horizontalStack=0;resizeParent=1;resizeParentMax=0;resizeLast=0;collapsible=1;marginBottom=0;whiteSpace=wrap;html=1;" parent="1" vertex="1">
          <mxGeometry x="320" y="4440" width="220" height="104" as="geometry" />
        </mxCell>
        <mxCell id="bHEL2EoI4zcogpbZpF7H-179" value="+ mod_params: List[ModuleParams]" style="text;strokeColor=none;fillColor=none;align=left;verticalAlign=top;spacingLeft=4;spacingRight=4;overflow=hidden;rotatable=0;points=[[0,0.5],[1,0.5]];portConstraint=eastwest;whiteSpace=wrap;html=1;" parent="bHEL2EoI4zcogpbZpF7H-178" vertex="1">
          <mxGeometry y="26" width="220" height="44" as="geometry" />
        </mxCell>
        <mxCell id="bHEL2EoI4zcogpbZpF7H-180" value="" style="line;strokeWidth=1;fillColor=none;align=left;verticalAlign=middle;spacingTop=-1;spacingLeft=3;spacingRight=3;rotatable=0;labelPosition=right;points=[];portConstraint=eastwest;strokeColor=inherit;" parent="bHEL2EoI4zcogpbZpF7H-178" vertex="1">
          <mxGeometry y="70" width="220" height="8" as="geometry" />
        </mxCell>
        <mxCell id="bHEL2EoI4zcogpbZpF7H-181" value="+ method(type): type" style="text;strokeColor=none;fillColor=none;align=left;verticalAlign=top;spacingLeft=4;spacingRight=4;overflow=hidden;rotatable=0;points=[[0,0.5],[1,0.5]];portConstraint=eastwest;whiteSpace=wrap;html=1;" parent="bHEL2EoI4zcogpbZpF7H-178" vertex="1">
          <mxGeometry y="78" width="220" height="26" as="geometry" />
        </mxCell>
        <mxCell id="bHEL2EoI4zcogpbZpF7H-182" value="Module" style="swimlane;fontStyle=1;align=center;verticalAlign=top;childLayout=stackLayout;horizontal=1;startSize=26;horizontalStack=0;resizeParent=1;resizeParentMax=0;resizeLast=0;collapsible=1;marginBottom=0;whiteSpace=wrap;html=1;" parent="1" vertex="1">
          <mxGeometry x="1310" y="4710" width="300" height="190" as="geometry" />
        </mxCell>
        <mxCell id="bHEL2EoI4zcogpbZpF7H-183" value="+ supplementary_data: Dict[DataType, Any]" style="text;strokeColor=none;fillColor=none;align=left;verticalAlign=top;spacingLeft=4;spacingRight=4;overflow=hidden;rotatable=0;points=[[0,0.5],[1,0.5]];portConstraint=eastwest;whiteSpace=wrap;html=1;" parent="bHEL2EoI4zcogpbZpF7H-182" vertex="1">
          <mxGeometry y="26" width="300" height="26" as="geometry" />
        </mxCell>
        <mxCell id="-e5JYh3tk_dBkfc9BK_Y-268" value="+ action_keyword: str" style="text;strokeColor=none;fillColor=none;align=left;verticalAlign=top;spacingLeft=4;spacingRight=4;overflow=hidden;rotatable=0;points=[[0,0.5],[1,0.5]];portConstraint=eastwest;whiteSpace=wrap;html=1;" parent="bHEL2EoI4zcogpbZpF7H-182" vertex="1">
          <mxGeometry y="52" width="300" height="26" as="geometry" />
        </mxCell>
        <mxCell id="bHEL2EoI4zcogpbZpF7H-184" value="" style="line;strokeWidth=1;fillColor=none;align=left;verticalAlign=middle;spacingTop=-1;spacingLeft=3;spacingRight=3;rotatable=0;labelPosition=right;points=[];portConstraint=eastwest;strokeColor=inherit;" parent="bHEL2EoI4zcogpbZpF7H-182" vertex="1">
          <mxGeometry y="78" width="300" height="8" as="geometry" />
        </mxCell>
        <mxCell id="bHEL2EoI4zcogpbZpF7H-185" value="+ run(Any): None" style="text;strokeColor=none;fillColor=none;align=left;verticalAlign=top;spacingLeft=4;spacingRight=4;overflow=hidden;rotatable=0;points=[[0,0.5],[1,0.5]];portConstraint=eastwest;whiteSpace=wrap;html=1;" parent="bHEL2EoI4zcogpbZpF7H-182" vertex="1">
          <mxGeometry y="86" width="300" height="26" as="geometry" />
        </mxCell>
        <mxCell id="-e5JYh3tk_dBkfc9BK_Y-271" value="+ load_data(str): None" style="text;strokeColor=none;fillColor=none;align=left;verticalAlign=top;spacingLeft=4;spacingRight=4;overflow=hidden;rotatable=0;points=[[0,0.5],[1,0.5]];portConstraint=eastwest;whiteSpace=wrap;html=1;" parent="bHEL2EoI4zcogpbZpF7H-182" vertex="1">
          <mxGeometry y="112" width="300" height="26" as="geometry" />
        </mxCell>
        <mxCell id="5HAyLcFatTJW0D2ZAjB1-18" value="+ load_supplementary_data(str): None" style="text;strokeColor=none;fillColor=none;align=left;verticalAlign=top;spacingLeft=4;spacingRight=4;overflow=hidden;rotatable=0;points=[[0,0.5],[1,0.5]];portConstraint=eastwest;whiteSpace=wrap;html=1;" vertex="1" parent="bHEL2EoI4zcogpbZpF7H-182">
          <mxGeometry y="138" width="300" height="26" as="geometry" />
        </mxCell>
        <mxCell id="-e5JYh3tk_dBkfc9BK_Y-269" value="+ save_data(str, Any): None" style="text;strokeColor=none;fillColor=none;align=left;verticalAlign=top;spacingLeft=4;spacingRight=4;overflow=hidden;rotatable=0;points=[[0,0.5],[1,0.5]];portConstraint=eastwest;whiteSpace=wrap;html=1;" parent="bHEL2EoI4zcogpbZpF7H-182" vertex="1">
          <mxGeometry y="164" width="300" height="26" as="geometry" />
        </mxCell>
        <mxCell id="bHEL2EoI4zcogpbZpF7H-186" value="Pipeline" style="swimlane;fontStyle=1;align=center;verticalAlign=top;childLayout=stackLayout;horizontal=1;startSize=26;horizontalStack=0;resizeParent=1;resizeParentMax=0;resizeLast=0;collapsible=1;marginBottom=0;whiteSpace=wrap;html=1;" parent="1" vertex="1">
          <mxGeometry x="1250.93" y="4453" width="418.15" height="216" as="geometry" />
        </mxCell>
        <mxCell id="bHEL2EoI4zcogpbZpF7H-187" value="+ routines: List[Module]" style="text;strokeColor=none;fillColor=none;align=left;verticalAlign=top;spacingLeft=4;spacingRight=4;overflow=hidden;rotatable=0;points=[[0,0.5],[1,0.5]];portConstraint=eastwest;whiteSpace=wrap;html=1;" parent="bHEL2EoI4zcogpbZpF7H-186" vertex="1">
          <mxGeometry y="26" width="418.15" height="26" as="geometry" />
        </mxCell>
        <mxCell id="5HAyLcFatTJW0D2ZAjB1-1" value="+ supplementary_data: Dict[DataType, Any]" style="text;strokeColor=none;fillColor=none;align=left;verticalAlign=top;spacingLeft=4;spacingRight=4;overflow=hidden;rotatable=0;points=[[0,0.5],[1,0.5]];portConstraint=eastwest;whiteSpace=wrap;html=1;" vertex="1" parent="bHEL2EoI4zcogpbZpF7H-186">
          <mxGeometry y="52" width="418.15" height="26" as="geometry" />
        </mxCell>
        <mxCell id="bHEL2EoI4zcogpbZpF7H-188" value="" style="line;strokeWidth=1;fillColor=none;align=left;verticalAlign=middle;spacingTop=-1;spacingLeft=3;spacingRight=3;rotatable=0;labelPosition=right;points=[];portConstraint=eastwest;strokeColor=inherit;" parent="bHEL2EoI4zcogpbZpF7H-186" vertex="1">
          <mxGeometry y="78" width="418.15" height="8" as="geometry" />
        </mxCell>
        <mxCell id="bHEL2EoI4zcogpbZpF7H-189" value="+ prepare(): None" style="text;strokeColor=none;fillColor=none;align=left;verticalAlign=top;spacingLeft=4;spacingRight=4;overflow=hidden;rotatable=0;points=[[0,0.5],[1,0.5]];portConstraint=eastwest;whiteSpace=wrap;html=1;" parent="bHEL2EoI4zcogpbZpF7H-186" vertex="1">
          <mxGeometry y="86" width="418.15" height="26" as="geometry" />
        </mxCell>
        <mxCell id="5HAyLcFatTJW0D2ZAjB1-4" value="+ assign_supplementary_data(routine, data_path, label_name): None" style="text;strokeColor=none;fillColor=none;align=left;verticalAlign=top;spacingLeft=4;spacingRight=4;overflow=hidden;rotatable=0;points=[[0,0.5],[1,0.5]];portConstraint=eastwest;whiteSpace=wrap;html=1;" vertex="1" parent="bHEL2EoI4zcogpbZpF7H-186">
          <mxGeometry y="112" width="418.15" height="26" as="geometry" />
        </mxCell>
        <mxCell id="5HAyLcFatTJW0D2ZAjB1-5" value="+ choose_to_keep_data(Module, data): None" style="text;strokeColor=none;fillColor=none;align=left;verticalAlign=top;spacingLeft=4;spacingRight=4;overflow=hidden;rotatable=0;points=[[0,0.5],[1,0.5]];portConstraint=eastwest;whiteSpace=wrap;html=1;" vertex="1" parent="bHEL2EoI4zcogpbZpF7H-186">
          <mxGeometry y="138" width="418.15" height="26" as="geometry" />
        </mxCell>
        <mxCell id="5HAyLcFatTJW0D2ZAjB1-43" value="+ choose_to_keep_input_data(data): None" style="text;strokeColor=none;fillColor=none;align=left;verticalAlign=top;spacingLeft=4;spacingRight=4;overflow=hidden;rotatable=0;points=[[0,0.5],[1,0.5]];portConstraint=eastwest;whiteSpace=wrap;html=1;" vertex="1" parent="bHEL2EoI4zcogpbZpF7H-186">
          <mxGeometry y="164" width="418.15" height="26" as="geometry" />
        </mxCell>
        <mxCell id="5HAyLcFatTJW0D2ZAjB1-6" value="+ process(data_path, label_name): None" style="text;strokeColor=none;fillColor=none;align=left;verticalAlign=top;spacingLeft=4;spacingRight=4;overflow=hidden;rotatable=0;points=[[0,0.5],[1,0.5]];portConstraint=eastwest;whiteSpace=wrap;html=1;" vertex="1" parent="bHEL2EoI4zcogpbZpF7H-186">
          <mxGeometry y="190" width="418.15" height="26" as="geometry" />
        </mxCell>
        <mxCell id="bHEL2EoI4zcogpbZpF7H-190" value="DataManager" style="swimlane;fontStyle=1;align=center;verticalAlign=top;childLayout=stackLayout;horizontal=1;startSize=26;horizontalStack=0;resizeParent=1;resizeParentMax=0;resizeLast=0;collapsible=1;marginBottom=0;whiteSpace=wrap;html=1;" parent="1" vertex="1">
          <mxGeometry x="640" y="4440" width="160" height="86" as="geometry" />
        </mxCell>
        <mxCell id="bHEL2EoI4zcogpbZpF7H-191" value="+ field: type" style="text;strokeColor=none;fillColor=none;align=left;verticalAlign=top;spacingLeft=4;spacingRight=4;overflow=hidden;rotatable=0;points=[[0,0.5],[1,0.5]];portConstraint=eastwest;whiteSpace=wrap;html=1;" parent="bHEL2EoI4zcogpbZpF7H-190" vertex="1">
          <mxGeometry y="26" width="160" height="26" as="geometry" />
        </mxCell>
        <mxCell id="bHEL2EoI4zcogpbZpF7H-192" value="" style="line;strokeWidth=1;fillColor=none;align=left;verticalAlign=middle;spacingTop=-1;spacingLeft=3;spacingRight=3;rotatable=0;labelPosition=right;points=[];portConstraint=eastwest;strokeColor=inherit;" parent="bHEL2EoI4zcogpbZpF7H-190" vertex="1">
          <mxGeometry y="52" width="160" height="8" as="geometry" />
        </mxCell>
        <mxCell id="bHEL2EoI4zcogpbZpF7H-193" value="+ method(type): type" style="text;strokeColor=none;fillColor=none;align=left;verticalAlign=top;spacingLeft=4;spacingRight=4;overflow=hidden;rotatable=0;points=[[0,0.5],[1,0.5]];portConstraint=eastwest;whiteSpace=wrap;html=1;" parent="bHEL2EoI4zcogpbZpF7H-190" vertex="1">
          <mxGeometry y="60" width="160" height="26" as="geometry" />
        </mxCell>
        <mxCell id="bHEL2EoI4zcogpbZpF7H-194" value="AnalysisManager" style="swimlane;fontStyle=1;align=center;verticalAlign=top;childLayout=stackLayout;horizontal=1;startSize=26;horizontalStack=0;resizeParent=1;resizeParentMax=0;resizeLast=0;collapsible=1;marginBottom=0;whiteSpace=wrap;html=1;" parent="1" vertex="1">
          <mxGeometry x="880" y="4440" width="290" height="242" as="geometry" />
        </mxCell>
        <mxCell id="bHEL2EoI4zcogpbZpF7H-195" value="+ data_manager: DataManager" style="text;strokeColor=none;fillColor=none;align=left;verticalAlign=top;spacingLeft=4;spacingRight=4;overflow=hidden;rotatable=0;points=[[0,0.5],[1,0.5]];portConstraint=eastwest;whiteSpace=wrap;html=1;" parent="bHEL2EoI4zcogpbZpF7H-194" vertex="1">
          <mxGeometry y="26" width="290" height="26" as="geometry" />
        </mxCell>
        <mxCell id="bHEL2EoI4zcogpbZpF7H-207" value="+ routine_names: List[ModuleName]" style="text;strokeColor=none;fillColor=none;align=left;verticalAlign=top;spacingLeft=4;spacingRight=4;overflow=hidden;rotatable=0;points=[[0,0.5],[1,0.5]];portConstraint=eastwest;whiteSpace=wrap;html=1;" parent="bHEL2EoI4zcogpbZpF7H-194" vertex="1">
          <mxGeometry y="52" width="290" height="26" as="geometry" />
        </mxCell>
        <mxCell id="bHEL2EoI4zcogpbZpF7H-208" value="+ pipelines: Dict[DataType, Pipeline]" style="text;strokeColor=none;fillColor=none;align=left;verticalAlign=top;spacingLeft=4;spacingRight=4;overflow=hidden;rotatable=0;points=[[0,0.5],[1,0.5]];portConstraint=eastwest;whiteSpace=wrap;html=1;" parent="bHEL2EoI4zcogpbZpF7H-194" vertex="1">
          <mxGeometry y="78" width="290" height="26" as="geometry" />
        </mxCell>
        <mxCell id="bHEL2EoI4zcogpbZpF7H-196" value="" style="line;strokeWidth=1;fillColor=none;align=left;verticalAlign=middle;spacingTop=-1;spacingLeft=3;spacingRight=3;rotatable=0;labelPosition=right;points=[];portConstraint=eastwest;strokeColor=inherit;" parent="bHEL2EoI4zcogpbZpF7H-194" vertex="1">
          <mxGeometry y="104" width="290" height="8" as="geometry" />
        </mxCell>
        <mxCell id="bHEL2EoI4zcogpbZpF7H-197" value="+ parse_commands(List[str]): None" style="text;strokeColor=none;fillColor=none;align=left;verticalAlign=top;spacingLeft=4;spacingRight=4;overflow=hidden;rotatable=0;points=[[0,0.5],[1,0.5]];portConstraint=eastwest;whiteSpace=wrap;html=1;" parent="bHEL2EoI4zcogpbZpF7H-194" vertex="1">
          <mxGeometry y="112" width="290" height="26" as="geometry" />
        </mxCell>
        <mxCell id="5HAyLcFatTJW0D2ZAjB1-7" value="+ get_routine_chain(DataType): List[ModuleName]" style="text;strokeColor=none;fillColor=none;align=left;verticalAlign=top;spacingLeft=4;spacingRight=4;overflow=hidden;rotatable=0;points=[[0,0.5],[1,0.5]];portConstraint=eastwest;whiteSpace=wrap;html=1;" vertex="1" parent="bHEL2EoI4zcogpbZpF7H-194">
          <mxGeometry y="138" width="290" height="26" as="geometry" />
        </mxCell>
        <mxCell id="5HAyLcFatTJW0D2ZAjB1-8" value="+ create_routine(ModuleName, DataType): Module" style="text;strokeColor=none;fillColor=none;align=left;verticalAlign=top;spacingLeft=4;spacingRight=4;overflow=hidden;rotatable=0;points=[[0,0.5],[1,0.5]];portConstraint=eastwest;whiteSpace=wrap;html=1;" vertex="1" parent="bHEL2EoI4zcogpbZpF7H-194">
          <mxGeometry y="164" width="290" height="26" as="geometry" />
        </mxCell>
        <mxCell id="5HAyLcFatTJW0D2ZAjB1-9" value="+ create_pipeline_routines(DataType): None" style="text;strokeColor=none;fillColor=none;align=left;verticalAlign=top;spacingLeft=4;spacingRight=4;overflow=hidden;rotatable=0;points=[[0,0.5],[1,0.5]];portConstraint=eastwest;whiteSpace=wrap;html=1;" vertex="1" parent="bHEL2EoI4zcogpbZpF7H-194">
          <mxGeometry y="190" width="290" height="26" as="geometry" />
        </mxCell>
        <mxCell id="5HAyLcFatTJW0D2ZAjB1-10" value="+ create_pipelines(): None" style="text;strokeColor=none;fillColor=none;align=left;verticalAlign=top;spacingLeft=4;spacingRight=4;overflow=hidden;rotatable=0;points=[[0,0.5],[1,0.5]];portConstraint=eastwest;whiteSpace=wrap;html=1;" vertex="1" parent="bHEL2EoI4zcogpbZpF7H-194">
          <mxGeometry y="216" width="290" height="26" as="geometry" />
        </mxCell>
        <mxCell id="bHEL2EoI4zcogpbZpF7H-198" value="RunArgs" style="swimlane;fontStyle=1;align=center;verticalAlign=top;childLayout=stackLayout;horizontal=1;startSize=26;horizontalStack=0;resizeParent=1;resizeParentMax=0;resizeLast=0;collapsible=1;marginBottom=0;whiteSpace=wrap;html=1;" parent="1" vertex="1">
          <mxGeometry x="40" y="4440" width="160" height="164" as="geometry" />
        </mxCell>
        <mxCell id="bHEL2EoI4zcogpbZpF7H-199" value="+ data_path: str" style="text;strokeColor=none;fillColor=none;align=left;verticalAlign=top;spacingLeft=4;spacingRight=4;overflow=hidden;rotatable=0;points=[[0,0.5],[1,0.5]];portConstraint=eastwest;whiteSpace=wrap;html=1;" parent="bHEL2EoI4zcogpbZpF7H-198" vertex="1">
          <mxGeometry y="26" width="160" height="26" as="geometry" />
        </mxCell>
        <mxCell id="bHEL2EoI4zcogpbZpF7H-211" value="+ cmd_list: str" style="text;strokeColor=none;fillColor=none;align=left;verticalAlign=top;spacingLeft=4;spacingRight=4;overflow=hidden;rotatable=0;points=[[0,0.5],[1,0.5]];portConstraint=eastwest;whiteSpace=wrap;html=1;" parent="bHEL2EoI4zcogpbZpF7H-198" vertex="1">
          <mxGeometry y="52" width="160" height="26" as="geometry" />
        </mxCell>
        <mxCell id="bHEL2EoI4zcogpbZpF7H-212" value="+ thread_nbr: int" style="text;strokeColor=none;fillColor=none;align=left;verticalAlign=top;spacingLeft=4;spacingRight=4;overflow=hidden;rotatable=0;points=[[0,0.5],[1,0.5]];portConstraint=eastwest;whiteSpace=wrap;html=1;" parent="bHEL2EoI4zcogpbZpF7H-198" vertex="1">
          <mxGeometry y="78" width="160" height="26" as="geometry" />
        </mxCell>
        <mxCell id="bHEL2EoI4zcogpbZpF7H-213" value="+ params_path: str" style="text;strokeColor=none;fillColor=none;align=left;verticalAlign=top;spacingLeft=4;spacingRight=4;overflow=hidden;rotatable=0;points=[[0,0.5],[1,0.5]];portConstraint=eastwest;whiteSpace=wrap;html=1;" parent="bHEL2EoI4zcogpbZpF7H-198" vertex="1">
          <mxGeometry y="104" width="160" height="26" as="geometry" />
        </mxCell>
        <mxCell id="bHEL2EoI4zcogpbZpF7H-200" value="" style="line;strokeWidth=1;fillColor=none;align=left;verticalAlign=middle;spacingTop=-1;spacingLeft=3;spacingRight=3;rotatable=0;labelPosition=right;points=[];portConstraint=eastwest;strokeColor=inherit;" parent="bHEL2EoI4zcogpbZpF7H-198" vertex="1">
          <mxGeometry y="130" width="160" height="8" as="geometry" />
        </mxCell>
        <mxCell id="bHEL2EoI4zcogpbZpF7H-201" value="+ _check_consistency()" style="text;strokeColor=none;fillColor=none;align=left;verticalAlign=top;spacingLeft=4;spacingRight=4;overflow=hidden;rotatable=0;points=[[0,0.5],[1,0.5]];portConstraint=eastwest;whiteSpace=wrap;html=1;" parent="bHEL2EoI4zcogpbZpF7H-198" vertex="1">
          <mxGeometry y="138" width="160" height="26" as="geometry" />
        </mxCell>
        <mxCell id="bHEL2EoI4zcogpbZpF7H-202" value="ModuleParams" style="swimlane;fontStyle=1;align=center;verticalAlign=top;childLayout=stackLayout;horizontal=1;startSize=26;horizontalStack=0;resizeParent=1;resizeParentMax=0;resizeLast=0;collapsible=1;marginBottom=0;whiteSpace=wrap;html=1;" parent="1" vertex="1">
          <mxGeometry x="320" y="4600" width="160" height="86" as="geometry" />
        </mxCell>
        <mxCell id="bHEL2EoI4zcogpbZpF7H-203" value="+ field: type" style="text;strokeColor=none;fillColor=none;align=left;verticalAlign=top;spacingLeft=4;spacingRight=4;overflow=hidden;rotatable=0;points=[[0,0.5],[1,0.5]];portConstraint=eastwest;whiteSpace=wrap;html=1;" parent="bHEL2EoI4zcogpbZpF7H-202" vertex="1">
          <mxGeometry y="26" width="160" height="26" as="geometry" />
        </mxCell>
        <mxCell id="bHEL2EoI4zcogpbZpF7H-204" value="" style="line;strokeWidth=1;fillColor=none;align=left;verticalAlign=middle;spacingTop=-1;spacingLeft=3;spacingRight=3;rotatable=0;labelPosition=right;points=[];portConstraint=eastwest;strokeColor=inherit;" parent="bHEL2EoI4zcogpbZpF7H-202" vertex="1">
          <mxGeometry y="52" width="160" height="8" as="geometry" />
        </mxCell>
        <mxCell id="bHEL2EoI4zcogpbZpF7H-205" value="+ method(type): type" style="text;strokeColor=none;fillColor=none;align=left;verticalAlign=top;spacingLeft=4;spacingRight=4;overflow=hidden;rotatable=0;points=[[0,0.5],[1,0.5]];portConstraint=eastwest;whiteSpace=wrap;html=1;" parent="bHEL2EoI4zcogpbZpF7H-202" vertex="1">
          <mxGeometry y="60" width="160" height="26" as="geometry" />
        </mxCell>
        <mxCell id="-e5JYh3tk_dBkfc9BK_Y-112" style="edgeStyle=orthogonalEdgeStyle;rounded=0;orthogonalLoop=1;jettySize=auto;html=1;entryX=0.5;entryY=0;entryDx=0;entryDy=0;" parent="1" source="-e5JYh3tk_dBkfc9BK_Y-105" target="-e5JYh3tk_dBkfc9BK_Y-111" edge="1">
          <mxGeometry relative="1" as="geometry" />
        </mxCell>
        <mxCell id="-e5JYh3tk_dBkfc9BK_Y-105" value="&lt;div&gt;project&lt;/div&gt;" style="rounded=0;whiteSpace=wrap;html=1;" parent="1" vertex="1">
          <mxGeometry x="280.99999999999994" y="2510" width="120" height="60" as="geometry" />
        </mxCell>
        <mxCell id="-e5JYh3tk_dBkfc9BK_Y-125" style="edgeStyle=orthogonalEdgeStyle;rounded=0;orthogonalLoop=1;jettySize=auto;html=1;" parent="1" source="-e5JYh3tk_dBkfc9BK_Y-106" target="-e5JYh3tk_dBkfc9BK_Y-124" edge="1">
          <mxGeometry relative="1" as="geometry" />
        </mxCell>
        <mxCell id="-e5JYh3tk_dBkfc9BK_Y-106" value="register local" style="rounded=0;whiteSpace=wrap;html=1;" parent="1" vertex="1">
          <mxGeometry x="280.99999999999994" y="3040" width="120" height="60" as="geometry" />
        </mxCell>
        <mxCell id="-e5JYh3tk_dBkfc9BK_Y-122" style="edgeStyle=orthogonalEdgeStyle;rounded=0;orthogonalLoop=1;jettySize=auto;html=1;entryX=0.5;entryY=0;entryDx=0;entryDy=0;" parent="1" source="-e5JYh3tk_dBkfc9BK_Y-107" target="-e5JYh3tk_dBkfc9BK_Y-121" edge="1">
          <mxGeometry relative="1" as="geometry" />
        </mxCell>
        <mxCell id="-e5JYh3tk_dBkfc9BK_Y-107" value="&lt;div&gt;shift&lt;/div&gt;" style="rounded=0;whiteSpace=wrap;html=1;" parent="1" vertex="1">
          <mxGeometry x="280.99999999999994" y="2880" width="120" height="60" as="geometry" />
        </mxCell>
        <mxCell id="-e5JYh3tk_dBkfc9BK_Y-116" style="edgeStyle=orthogonalEdgeStyle;rounded=0;orthogonalLoop=1;jettySize=auto;html=1;entryX=0.5;entryY=0;entryDx=0;entryDy=0;" parent="1" source="-e5JYh3tk_dBkfc9BK_Y-108" target="-e5JYh3tk_dBkfc9BK_Y-114" edge="1">
          <mxGeometry relative="1" as="geometry" />
        </mxCell>
        <mxCell id="-e5JYh3tk_dBkfc9BK_Y-108" value="register global" style="rounded=0;whiteSpace=wrap;html=1;" parent="1" vertex="1">
          <mxGeometry x="280.99999999999994" y="2690" width="120" height="60" as="geometry" />
        </mxCell>
        <mxCell id="-e5JYh3tk_dBkfc9BK_Y-110" style="edgeStyle=orthogonalEdgeStyle;rounded=0;orthogonalLoop=1;jettySize=auto;html=1;entryX=0.5;entryY=0;entryDx=0;entryDy=0;" parent="1" source="-e5JYh3tk_dBkfc9BK_Y-109" target="-e5JYh3tk_dBkfc9BK_Y-105" edge="1">
          <mxGeometry relative="1" as="geometry" />
        </mxCell>
        <mxCell id="-e5JYh3tk_dBkfc9BK_Y-120" style="edgeStyle=orthogonalEdgeStyle;rounded=0;orthogonalLoop=1;jettySize=auto;html=1;" parent="1" source="-e5JYh3tk_dBkfc9BK_Y-109" target="-e5JYh3tk_dBkfc9BK_Y-115" edge="1">
          <mxGeometry relative="1" as="geometry" />
        </mxCell>
        <mxCell id="-e5JYh3tk_dBkfc9BK_Y-109" value="Fiducial 3D img" style="ellipse;whiteSpace=wrap;html=1;" parent="1" vertex="1">
          <mxGeometry x="290.99999999999994" y="2402" width="100" height="50" as="geometry" />
        </mxCell>
        <mxCell id="-e5JYh3tk_dBkfc9BK_Y-113" style="edgeStyle=orthogonalEdgeStyle;rounded=0;orthogonalLoop=1;jettySize=auto;html=1;entryX=0.5;entryY=0;entryDx=0;entryDy=0;" parent="1" source="-e5JYh3tk_dBkfc9BK_Y-111" target="-e5JYh3tk_dBkfc9BK_Y-108" edge="1">
          <mxGeometry relative="1" as="geometry" />
        </mxCell>
        <mxCell id="-e5JYh3tk_dBkfc9BK_Y-111" value="Fiducial 2D img" style="ellipse;whiteSpace=wrap;html=1;" parent="1" vertex="1">
          <mxGeometry x="290.99999999999994" y="2600" width="100" height="50" as="geometry" />
        </mxCell>
        <mxCell id="-e5JYh3tk_dBkfc9BK_Y-118" style="edgeStyle=orthogonalEdgeStyle;rounded=0;orthogonalLoop=1;jettySize=auto;html=1;" parent="1" source="-e5JYh3tk_dBkfc9BK_Y-114" target="-e5JYh3tk_dBkfc9BK_Y-107" edge="1">
          <mxGeometry relative="1" as="geometry" />
        </mxCell>
        <mxCell id="-e5JYh3tk_dBkfc9BK_Y-114" value="X,Y shift" style="ellipse;whiteSpace=wrap;html=1;" parent="1" vertex="1">
          <mxGeometry x="285.99999999999994" y="2780" width="110" height="60" as="geometry" />
        </mxCell>
        <mxCell id="-e5JYh3tk_dBkfc9BK_Y-119" style="edgeStyle=orthogonalEdgeStyle;rounded=0;orthogonalLoop=1;jettySize=auto;html=1;" parent="1" source="-e5JYh3tk_dBkfc9BK_Y-115" target="-e5JYh3tk_dBkfc9BK_Y-107" edge="1">
          <mxGeometry relative="1" as="geometry">
            <Array as="points">
              <mxPoint x="124.99999999999994" y="2910" />
            </Array>
          </mxGeometry>
        </mxCell>
        <mxCell id="-e5JYh3tk_dBkfc9BK_Y-115" value="Fiducial 3D img" style="ellipse;whiteSpace=wrap;html=1;" parent="1" vertex="1">
          <mxGeometry x="74.7899999999999" y="2785" width="100" height="50" as="geometry" />
        </mxCell>
        <mxCell id="-e5JYh3tk_dBkfc9BK_Y-123" style="edgeStyle=orthogonalEdgeStyle;rounded=0;orthogonalLoop=1;jettySize=auto;html=1;entryX=0.5;entryY=0;entryDx=0;entryDy=0;" parent="1" source="-e5JYh3tk_dBkfc9BK_Y-121" target="-e5JYh3tk_dBkfc9BK_Y-106" edge="1">
          <mxGeometry relative="1" as="geometry" />
        </mxCell>
        <mxCell id="-e5JYh3tk_dBkfc9BK_Y-121" value="Shifted fiducial&amp;nbsp; 3D img" style="ellipse;whiteSpace=wrap;html=1;" parent="1" vertex="1">
          <mxGeometry x="290.99999999999994" y="2970" width="100" height="50" as="geometry" />
        </mxCell>
        <mxCell id="-e5JYh3tk_dBkfc9BK_Y-124" value="Z,X,Y block shifts" style="ellipse;whiteSpace=wrap;html=1;" parent="1" vertex="1">
          <mxGeometry x="285.99999999999994" y="3130" width="110" height="60" as="geometry" />
        </mxCell>
        <mxCell id="-e5JYh3tk_dBkfc9BK_Y-126" style="edgeStyle=orthogonalEdgeStyle;rounded=0;orthogonalLoop=1;jettySize=auto;html=1;entryX=0;entryY=0.5;entryDx=0;entryDy=0;" parent="1" source="-e5JYh3tk_dBkfc9BK_Y-127" target="-e5JYh3tk_dBkfc9BK_Y-130" edge="1">
          <mxGeometry relative="1" as="geometry" />
        </mxCell>
        <mxCell id="-e5JYh3tk_dBkfc9BK_Y-127" value="&lt;div&gt;project&lt;/div&gt;" style="rounded=0;whiteSpace=wrap;html=1;" parent="1" vertex="1">
          <mxGeometry x="600.9999999999999" y="2395" width="83.71" height="60" as="geometry" />
        </mxCell>
        <mxCell id="-e5JYh3tk_dBkfc9BK_Y-128" style="edgeStyle=orthogonalEdgeStyle;rounded=0;orthogonalLoop=1;jettySize=auto;html=1;entryX=0;entryY=0.5;entryDx=0;entryDy=0;" parent="1" source="-e5JYh3tk_dBkfc9BK_Y-129" target="-e5JYh3tk_dBkfc9BK_Y-127" edge="1">
          <mxGeometry relative="1" as="geometry" />
        </mxCell>
        <mxCell id="-e5JYh3tk_dBkfc9BK_Y-136" style="edgeStyle=orthogonalEdgeStyle;rounded=0;orthogonalLoop=1;jettySize=auto;html=1;entryX=1;entryY=0.5;entryDx=0;entryDy=0;" parent="1" source="-e5JYh3tk_dBkfc9BK_Y-129" target="-e5JYh3tk_dBkfc9BK_Y-106" edge="1">
          <mxGeometry relative="1" as="geometry">
            <Array as="points">
              <mxPoint x="520.9999999999999" y="3070" />
            </Array>
          </mxGeometry>
        </mxCell>
        <mxCell id="-e5JYh3tk_dBkfc9BK_Y-129" value="Reference 3D img" style="ellipse;whiteSpace=wrap;html=1;" parent="1" vertex="1">
          <mxGeometry x="470.99999999999994" y="2400" width="100" height="50" as="geometry" />
        </mxCell>
        <mxCell id="-e5JYh3tk_dBkfc9BK_Y-135" style="edgeStyle=orthogonalEdgeStyle;rounded=0;orthogonalLoop=1;jettySize=auto;html=1;entryX=1;entryY=0.5;entryDx=0;entryDy=0;" parent="1" source="-e5JYh3tk_dBkfc9BK_Y-140" target="-e5JYh3tk_dBkfc9BK_Y-108" edge="1">
          <mxGeometry relative="1" as="geometry">
            <Array as="points">
              <mxPoint x="795.9999999999999" y="2720" />
            </Array>
          </mxGeometry>
        </mxCell>
        <mxCell id="-e5JYh3tk_dBkfc9BK_Y-130" value="reference 2D img" style="ellipse;whiteSpace=wrap;html=1;" parent="1" vertex="1">
          <mxGeometry x="709.7099999999999" y="2400" width="100" height="50" as="geometry" />
        </mxCell>
        <mxCell id="-e5JYh3tk_dBkfc9BK_Y-134" value="Pre-processing" style="text;html=1;align=center;verticalAlign=middle;resizable=0;points=[];autosize=1;strokeColor=none;fillColor=none;" parent="1" vertex="1">
          <mxGeometry x="634.7899999999998" y="2330" width="100" height="30" as="geometry" />
        </mxCell>
        <mxCell id="-e5JYh3tk_dBkfc9BK_Y-138" value="&lt;div&gt;Registration Pipeline&lt;/div&gt;" style="text;html=1;align=center;verticalAlign=middle;resizable=0;points=[];autosize=1;strokeColor=none;fillColor=none;rotation=-90;" parent="1" vertex="1">
          <mxGeometry x="161.7899999999999" y="2720" width="130" height="30" as="geometry" />
        </mxCell>
        <mxCell id="-e5JYh3tk_dBkfc9BK_Y-141" value="Reference 3D img" style="ellipse;whiteSpace=wrap;html=1;" parent="1" vertex="1">
          <mxGeometry x="474.7899999999999" y="3045" width="100" height="50" as="geometry" />
        </mxCell>
        <mxCell id="-e5JYh3tk_dBkfc9BK_Y-144" style="edgeStyle=orthogonalEdgeStyle;rounded=0;orthogonalLoop=1;jettySize=auto;html=1;entryX=0.5;entryY=0;entryDx=0;entryDy=0;" parent="1" source="-e5JYh3tk_dBkfc9BK_Y-143" target="-e5JYh3tk_dBkfc9BK_Y-109" edge="1">
          <mxGeometry relative="1" as="geometry" />
        </mxCell>
        <mxCell id="-e5JYh3tk_dBkfc9BK_Y-143" value="&lt;div&gt;Load&lt;/div&gt;" style="rounded=0;whiteSpace=wrap;html=1;" parent="1" vertex="1">
          <mxGeometry x="308.49999999999994" y="2350" width="65" height="35" as="geometry" />
        </mxCell>
        <mxCell id="-e5JYh3tk_dBkfc9BK_Y-146" value="&lt;div&gt;Load&lt;/div&gt;" style="rounded=0;whiteSpace=wrap;html=1;" parent="1" vertex="1">
          <mxGeometry x="490.49999999999994" y="2344.9700000000003" width="65" height="35" as="geometry" />
        </mxCell>
        <mxCell id="-e5JYh3tk_dBkfc9BK_Y-148" style="edgeStyle=orthogonalEdgeStyle;rounded=0;orthogonalLoop=1;jettySize=auto;html=1;entryX=0.519;entryY=-0.018;entryDx=0;entryDy=0;entryPerimeter=0;" parent="1" source="-e5JYh3tk_dBkfc9BK_Y-146" target="-e5JYh3tk_dBkfc9BK_Y-129" edge="1">
          <mxGeometry relative="1" as="geometry" />
        </mxCell>
        <mxCell id="-e5JYh3tk_dBkfc9BK_Y-149" value="&lt;div&gt;Data to keep during all pipeline analysis&lt;/div&gt;" style="rounded=0;whiteSpace=wrap;html=1;" parent="1" vertex="1">
          <mxGeometry x="1370" y="2500" width="140" height="450" as="geometry" />
        </mxCell>
        <mxCell id="-e5JYh3tk_dBkfc9BK_Y-150" value="&lt;br&gt;&lt;div&gt;&lt;br&gt;&lt;/div&gt;&lt;div&gt;&lt;br&gt;&lt;/div&gt;&lt;div&gt;&lt;br&gt;&lt;/div&gt;&lt;div&gt;&lt;br&gt;&lt;/div&gt;&lt;div&gt;&lt;br&gt;&lt;/div&gt;&lt;div&gt;&lt;br&gt;&lt;/div&gt;&lt;div&gt;&lt;br&gt;&lt;/div&gt;&lt;div&gt;&lt;br&gt;&lt;/div&gt;&lt;div&gt;&lt;br&gt;&lt;/div&gt;&lt;div&gt;&lt;br&gt;&lt;/div&gt;&lt;div&gt;&lt;br&gt;&lt;/div&gt;&lt;div&gt;&lt;br&gt;&lt;/div&gt;&lt;div&gt;&lt;br&gt;&lt;/div&gt;&lt;div&gt;&lt;br&gt;&lt;/div&gt;&lt;div&gt;&lt;br&gt;&lt;/div&gt;&lt;div&gt;&lt;br&gt;&lt;/div&gt;&lt;div&gt;&lt;br&gt;&lt;/div&gt;&lt;div&gt;&lt;br&gt;&lt;/div&gt;&lt;div&gt;&lt;br&gt;&lt;/div&gt;&lt;div&gt;&lt;br&gt;&lt;/div&gt;&lt;div&gt;&lt;br&gt;&lt;/div&gt;&lt;div&gt;&lt;br&gt;&lt;/div&gt;&lt;div&gt;&lt;br&gt;&lt;/div&gt;&lt;div&gt;&lt;br&gt;&lt;/div&gt;&lt;div&gt;&lt;br&gt;&lt;/div&gt;&lt;div&gt;&lt;br&gt;&lt;/div&gt;&lt;div&gt;Data to keep during this pipeline analysis&lt;/div&gt;" style="rounded=0;whiteSpace=wrap;html=1;" parent="1" vertex="1">
          <mxGeometry x="949.9999999999999" y="2500" width="153.79" height="450" as="geometry" />
        </mxCell>
        <mxCell id="-e5JYh3tk_dBkfc9BK_Y-151" value="" style="rounded=0;whiteSpace=wrap;html=1;" parent="1" vertex="1">
          <mxGeometry x="1110" y="2500" width="240" height="450" as="geometry" />
        </mxCell>
        <mxCell id="-e5JYh3tk_dBkfc9BK_Y-152" value="" style="rounded=1;whiteSpace=wrap;html=1;" parent="1" vertex="1">
          <mxGeometry x="1160" y="2330" width="350" height="160" as="geometry" />
        </mxCell>
        <mxCell id="-e5JYh3tk_dBkfc9BK_Y-153" style="edgeStyle=orthogonalEdgeStyle;rounded=0;orthogonalLoop=1;jettySize=auto;html=1;entryX=0.5;entryY=0;entryDx=0;entryDy=0;" parent="1" source="-e5JYh3tk_dBkfc9BK_Y-154" target="-e5JYh3tk_dBkfc9BK_Y-165" edge="1">
          <mxGeometry relative="1" as="geometry" />
        </mxCell>
        <mxCell id="-e5JYh3tk_dBkfc9BK_Y-154" value="Shift" style="rounded=0;whiteSpace=wrap;html=1;" parent="1" vertex="1">
          <mxGeometry x="1200" y="2510" width="120" height="60" as="geometry" />
        </mxCell>
        <mxCell id="-e5JYh3tk_dBkfc9BK_Y-157" style="edgeStyle=orthogonalEdgeStyle;rounded=0;orthogonalLoop=1;jettySize=auto;html=1;entryX=0.5;entryY=0;entryDx=0;entryDy=0;" parent="1" source="-e5JYh3tk_dBkfc9BK_Y-158" target="-e5JYh3tk_dBkfc9BK_Y-171" edge="1">
          <mxGeometry relative="1" as="geometry" />
        </mxCell>
        <mxCell id="-e5JYh3tk_dBkfc9BK_Y-158" value="Extract" style="rounded=0;whiteSpace=wrap;html=1;" parent="1" vertex="1">
          <mxGeometry x="1200" y="2880" width="120" height="60" as="geometry" />
        </mxCell>
        <mxCell id="-e5JYh3tk_dBkfc9BK_Y-159" style="edgeStyle=orthogonalEdgeStyle;rounded=0;orthogonalLoop=1;jettySize=auto;html=1;entryX=0.5;entryY=0;entryDx=0;entryDy=0;" parent="1" source="-e5JYh3tk_dBkfc9BK_Y-160" target="-e5JYh3tk_dBkfc9BK_Y-167" edge="1">
          <mxGeometry relative="1" as="geometry" />
        </mxCell>
        <mxCell id="-e5JYh3tk_dBkfc9BK_Y-160" value="Segment" style="rounded=0;whiteSpace=wrap;html=1;" parent="1" vertex="1">
          <mxGeometry x="1200" y="2690" width="120" height="60" as="geometry" />
        </mxCell>
        <mxCell id="-e5JYh3tk_dBkfc9BK_Y-161" style="edgeStyle=orthogonalEdgeStyle;rounded=0;orthogonalLoop=1;jettySize=auto;html=1;entryX=0.5;entryY=0;entryDx=0;entryDy=0;" parent="1" source="-e5JYh3tk_dBkfc9BK_Y-163" target="-e5JYh3tk_dBkfc9BK_Y-154" edge="1">
          <mxGeometry relative="1" as="geometry" />
        </mxCell>
        <mxCell id="-e5JYh3tk_dBkfc9BK_Y-162" style="edgeStyle=orthogonalEdgeStyle;rounded=0;orthogonalLoop=1;jettySize=auto;html=1;" parent="1" source="-e5JYh3tk_dBkfc9BK_Y-165" target="-e5JYh3tk_dBkfc9BK_Y-169" edge="1">
          <mxGeometry relative="1" as="geometry" />
        </mxCell>
        <mxCell id="-e5JYh3tk_dBkfc9BK_Y-163" value="Barcode 3D img" style="ellipse;whiteSpace=wrap;html=1;" parent="1" vertex="1">
          <mxGeometry x="1210" y="2402" width="100" height="50" as="geometry" />
        </mxCell>
        <mxCell id="-e5JYh3tk_dBkfc9BK_Y-164" style="edgeStyle=orthogonalEdgeStyle;rounded=0;orthogonalLoop=1;jettySize=auto;html=1;entryX=0.5;entryY=0;entryDx=0;entryDy=0;" parent="1" source="-e5JYh3tk_dBkfc9BK_Y-165" target="-e5JYh3tk_dBkfc9BK_Y-160" edge="1">
          <mxGeometry relative="1" as="geometry" />
        </mxCell>
        <mxCell id="-e5JYh3tk_dBkfc9BK_Y-165" value="Shifted barcode&amp;nbsp; 3D img" style="ellipse;whiteSpace=wrap;html=1;" parent="1" vertex="1">
          <mxGeometry x="1210" y="2600" width="100" height="50" as="geometry" />
        </mxCell>
        <mxCell id="-e5JYh3tk_dBkfc9BK_Y-166" style="edgeStyle=orthogonalEdgeStyle;rounded=0;orthogonalLoop=1;jettySize=auto;html=1;" parent="1" source="-e5JYh3tk_dBkfc9BK_Y-167" target="-e5JYh3tk_dBkfc9BK_Y-158" edge="1">
          <mxGeometry relative="1" as="geometry" />
        </mxCell>
        <mxCell id="-e5JYh3tk_dBkfc9BK_Y-167" value="Segmented shifted barcode 3D img" style="ellipse;whiteSpace=wrap;html=1;" parent="1" vertex="1">
          <mxGeometry x="1205" y="2780" width="110" height="60" as="geometry" />
        </mxCell>
        <mxCell id="-e5JYh3tk_dBkfc9BK_Y-168" style="edgeStyle=orthogonalEdgeStyle;rounded=0;orthogonalLoop=1;jettySize=auto;html=1;" parent="1" source="-e5JYh3tk_dBkfc9BK_Y-169" target="-e5JYh3tk_dBkfc9BK_Y-158" edge="1">
          <mxGeometry relative="1" as="geometry">
            <Array as="points">
              <mxPoint x="1044" y="2900" />
            </Array>
          </mxGeometry>
        </mxCell>
        <mxCell id="-e5JYh3tk_dBkfc9BK_Y-169" value="Shifted barcode&amp;nbsp; 3D img" style="ellipse;whiteSpace=wrap;html=1;" parent="1" vertex="1">
          <mxGeometry x="993.79" y="2785" width="100" height="50" as="geometry" />
        </mxCell>
        <mxCell id="-e5JYh3tk_dBkfc9BK_Y-171" value="Barcode Table" style="ellipse;whiteSpace=wrap;html=1;" parent="1" vertex="1">
          <mxGeometry x="1210" y="2970" width="100" height="50" as="geometry" />
        </mxCell>
        <mxCell id="-e5JYh3tk_dBkfc9BK_Y-176" style="edgeStyle=orthogonalEdgeStyle;rounded=0;orthogonalLoop=1;jettySize=auto;html=1;entryX=1;entryY=0.5;entryDx=0;entryDy=0;" parent="1" source="-e5JYh3tk_dBkfc9BK_Y-177" target="-e5JYh3tk_dBkfc9BK_Y-154" edge="1">
          <mxGeometry relative="1" as="geometry">
            <Array as="points">
              <mxPoint x="1440" y="2540" />
            </Array>
          </mxGeometry>
        </mxCell>
        <mxCell id="-e5JYh3tk_dBkfc9BK_Y-177" value="Shift_Table" style="ellipse;whiteSpace=wrap;html=1;" parent="1" vertex="1">
          <mxGeometry x="1390" y="2400" width="100" height="50" as="geometry" />
        </mxCell>
        <mxCell id="-e5JYh3tk_dBkfc9BK_Y-180" value="Pre-processing" style="text;html=1;align=center;verticalAlign=middle;resizable=0;points=[];autosize=1;strokeColor=none;fillColor=none;" parent="1" vertex="1">
          <mxGeometry x="1300" y="2340" width="100" height="30" as="geometry" />
        </mxCell>
        <mxCell id="-e5JYh3tk_dBkfc9BK_Y-181" value="&lt;div&gt;Barcode Pipeline&lt;/div&gt;" style="text;html=1;align=center;verticalAlign=middle;resizable=0;points=[];autosize=1;strokeColor=none;fillColor=none;rotation=-90;" parent="1" vertex="1">
          <mxGeometry x="1090.79" y="2720" width="110" height="30" as="geometry" />
        </mxCell>
        <mxCell id="-e5JYh3tk_dBkfc9BK_Y-183" value="Shift Table" style="ellipse;whiteSpace=wrap;html=1;" parent="1" vertex="1">
          <mxGeometry x="1390" y="2515" width="100" height="50" as="geometry" />
        </mxCell>
        <mxCell id="-e5JYh3tk_dBkfc9BK_Y-184" style="edgeStyle=orthogonalEdgeStyle;rounded=0;orthogonalLoop=1;jettySize=auto;html=1;entryX=0.5;entryY=0;entryDx=0;entryDy=0;" parent="1" source="-e5JYh3tk_dBkfc9BK_Y-185" target="-e5JYh3tk_dBkfc9BK_Y-163" edge="1">
          <mxGeometry relative="1" as="geometry" />
        </mxCell>
        <mxCell id="-e5JYh3tk_dBkfc9BK_Y-185" value="&lt;div&gt;Load&lt;/div&gt;" style="rounded=0;whiteSpace=wrap;html=1;" parent="1" vertex="1">
          <mxGeometry x="1227.5" y="2350" width="65" height="35" as="geometry" />
        </mxCell>
        <mxCell id="-e5JYh3tk_dBkfc9BK_Y-186" value="&lt;div&gt;Load&lt;/div&gt;" style="rounded=0;whiteSpace=wrap;html=1;" parent="1" vertex="1">
          <mxGeometry x="1409.5" y="2344.9700000000003" width="65" height="35" as="geometry" />
        </mxCell>
        <mxCell id="-e5JYh3tk_dBkfc9BK_Y-187" style="edgeStyle=orthogonalEdgeStyle;rounded=0;orthogonalLoop=1;jettySize=auto;html=1;entryX=0.519;entryY=-0.018;entryDx=0;entryDy=0;entryPerimeter=0;" parent="1" source="-e5JYh3tk_dBkfc9BK_Y-186" target="-e5JYh3tk_dBkfc9BK_Y-177" edge="1">
          <mxGeometry relative="1" as="geometry" />
        </mxCell>
        <mxCell id="-e5JYh3tk_dBkfc9BK_Y-188" value="&lt;div&gt;Data to keep during all pipeline analysis&lt;/div&gt;" style="rounded=0;whiteSpace=wrap;html=1;" parent="1" vertex="1">
          <mxGeometry x="550" y="3550" width="140" height="610" as="geometry" />
        </mxCell>
        <mxCell id="-e5JYh3tk_dBkfc9BK_Y-189" value="&lt;br&gt;&lt;div&gt;&lt;br&gt;&lt;/div&gt;&lt;div&gt;&lt;br&gt;&lt;/div&gt;&lt;div&gt;&lt;br&gt;&lt;/div&gt;&lt;div&gt;&lt;br&gt;&lt;/div&gt;&lt;div&gt;&lt;br&gt;&lt;/div&gt;&lt;div&gt;&lt;br&gt;&lt;/div&gt;&lt;div&gt;&lt;br&gt;&lt;/div&gt;&lt;div&gt;&lt;br&gt;&lt;/div&gt;&lt;div&gt;&lt;br&gt;&lt;/div&gt;&lt;div&gt;&lt;br&gt;&lt;/div&gt;&lt;div&gt;&lt;br&gt;&lt;/div&gt;&lt;div&gt;&lt;br&gt;&lt;/div&gt;&lt;div&gt;&lt;br&gt;&lt;/div&gt;&lt;div&gt;&lt;br&gt;&lt;/div&gt;&lt;div&gt;&lt;br&gt;&lt;/div&gt;&lt;div&gt;&lt;br&gt;&lt;/div&gt;&lt;div&gt;&lt;br&gt;&lt;/div&gt;&lt;div&gt;&lt;br&gt;&lt;/div&gt;&lt;div&gt;&lt;br&gt;&lt;/div&gt;&lt;div&gt;&lt;br&gt;&lt;/div&gt;&lt;div&gt;&lt;br&gt;&lt;/div&gt;&lt;div&gt;&lt;br&gt;&lt;/div&gt;&lt;div&gt;&lt;br&gt;&lt;/div&gt;&lt;div&gt;&lt;br&gt;&lt;/div&gt;&lt;div&gt;&lt;br&gt;&lt;/div&gt;&lt;div&gt;&lt;br&gt;&lt;/div&gt;&lt;div&gt;Data to keep during this pipeline analysis&lt;/div&gt;" style="rounded=0;whiteSpace=wrap;html=1;" parent="1" vertex="1">
          <mxGeometry x="130" y="3550" width="153.79" height="610" as="geometry" />
        </mxCell>
        <mxCell id="-e5JYh3tk_dBkfc9BK_Y-190" value="" style="rounded=0;whiteSpace=wrap;html=1;" parent="1" vertex="1">
          <mxGeometry x="290" y="3550" width="240" height="610" as="geometry" />
        </mxCell>
        <mxCell id="-e5JYh3tk_dBkfc9BK_Y-191" value="" style="rounded=1;whiteSpace=wrap;html=1;" parent="1" vertex="1">
          <mxGeometry x="340" y="3380" width="350" height="160" as="geometry" />
        </mxCell>
        <mxCell id="-e5JYh3tk_dBkfc9BK_Y-192" style="edgeStyle=orthogonalEdgeStyle;rounded=0;orthogonalLoop=1;jettySize=auto;html=1;entryX=0.5;entryY=0;entryDx=0;entryDy=0;" parent="1" source="-e5JYh3tk_dBkfc9BK_Y-193" target="-e5JYh3tk_dBkfc9BK_Y-202" edge="1">
          <mxGeometry relative="1" as="geometry" />
        </mxCell>
        <mxCell id="-e5JYh3tk_dBkfc9BK_Y-193" value="Shift" style="rounded=0;whiteSpace=wrap;html=1;" parent="1" vertex="1">
          <mxGeometry x="380" y="3560" width="120" height="60" as="geometry" />
        </mxCell>
        <mxCell id="-e5JYh3tk_dBkfc9BK_Y-194" style="edgeStyle=orthogonalEdgeStyle;rounded=0;orthogonalLoop=1;jettySize=auto;html=1;entryX=0.5;entryY=0;entryDx=0;entryDy=0;" parent="1" source="-e5JYh3tk_dBkfc9BK_Y-195" target="-e5JYh3tk_dBkfc9BK_Y-207" edge="1">
          <mxGeometry relative="1" as="geometry" />
        </mxCell>
        <mxCell id="-e5JYh3tk_dBkfc9BK_Y-195" value="Extract" style="rounded=0;whiteSpace=wrap;html=1;" parent="1" vertex="1">
          <mxGeometry x="380" y="3930" width="120" height="60" as="geometry" />
        </mxCell>
        <mxCell id="-e5JYh3tk_dBkfc9BK_Y-196" style="edgeStyle=orthogonalEdgeStyle;rounded=0;orthogonalLoop=1;jettySize=auto;html=1;entryX=0.5;entryY=0;entryDx=0;entryDy=0;" parent="1" source="-e5JYh3tk_dBkfc9BK_Y-197" target="-e5JYh3tk_dBkfc9BK_Y-204" edge="1">
          <mxGeometry relative="1" as="geometry" />
        </mxCell>
        <mxCell id="-e5JYh3tk_dBkfc9BK_Y-197" value="Segment" style="rounded=0;whiteSpace=wrap;html=1;" parent="1" vertex="1">
          <mxGeometry x="380" y="3740" width="120" height="60" as="geometry" />
        </mxCell>
        <mxCell id="-e5JYh3tk_dBkfc9BK_Y-198" style="edgeStyle=orthogonalEdgeStyle;rounded=0;orthogonalLoop=1;jettySize=auto;html=1;entryX=0.5;entryY=0;entryDx=0;entryDy=0;" parent="1" source="-e5JYh3tk_dBkfc9BK_Y-200" target="-e5JYh3tk_dBkfc9BK_Y-193" edge="1">
          <mxGeometry relative="1" as="geometry" />
        </mxCell>
        <mxCell id="-e5JYh3tk_dBkfc9BK_Y-199" style="edgeStyle=orthogonalEdgeStyle;rounded=0;orthogonalLoop=1;jettySize=auto;html=1;" parent="1" source="-e5JYh3tk_dBkfc9BK_Y-202" target="-e5JYh3tk_dBkfc9BK_Y-206" edge="1">
          <mxGeometry relative="1" as="geometry" />
        </mxCell>
        <mxCell id="-e5JYh3tk_dBkfc9BK_Y-200" value="Mask 3D img" style="ellipse;whiteSpace=wrap;html=1;" parent="1" vertex="1">
          <mxGeometry x="390" y="3452" width="100" height="50" as="geometry" />
        </mxCell>
        <mxCell id="-e5JYh3tk_dBkfc9BK_Y-201" style="edgeStyle=orthogonalEdgeStyle;rounded=0;orthogonalLoop=1;jettySize=auto;html=1;entryX=0.5;entryY=0;entryDx=0;entryDy=0;" parent="1" source="-e5JYh3tk_dBkfc9BK_Y-202" target="-e5JYh3tk_dBkfc9BK_Y-197" edge="1">
          <mxGeometry relative="1" as="geometry" />
        </mxCell>
        <mxCell id="-e5JYh3tk_dBkfc9BK_Y-202" value="Shifted mask 3D img" style="ellipse;whiteSpace=wrap;html=1;" parent="1" vertex="1">
          <mxGeometry x="390" y="3650" width="100" height="50" as="geometry" />
        </mxCell>
        <mxCell id="-e5JYh3tk_dBkfc9BK_Y-203" style="edgeStyle=orthogonalEdgeStyle;rounded=0;orthogonalLoop=1;jettySize=auto;html=1;" parent="1" source="-e5JYh3tk_dBkfc9BK_Y-204" target="-e5JYh3tk_dBkfc9BK_Y-195" edge="1">
          <mxGeometry relative="1" as="geometry" />
        </mxCell>
        <mxCell id="-e5JYh3tk_dBkfc9BK_Y-221" style="edgeStyle=orthogonalEdgeStyle;rounded=0;orthogonalLoop=1;jettySize=auto;html=1;entryX=0;entryY=0.5;entryDx=0;entryDy=0;" parent="1" source="-e5JYh3tk_dBkfc9BK_Y-204" target="-e5JYh3tk_dBkfc9BK_Y-218" edge="1">
          <mxGeometry relative="1" as="geometry">
            <Array as="points">
              <mxPoint x="140" y="3860" />
              <mxPoint x="140" y="4120" />
            </Array>
          </mxGeometry>
        </mxCell>
        <mxCell id="-e5JYh3tk_dBkfc9BK_Y-204" value="Segmented shifted mask 3D img" style="ellipse;whiteSpace=wrap;html=1;" parent="1" vertex="1">
          <mxGeometry x="385" y="3830" width="110" height="60" as="geometry" />
        </mxCell>
        <mxCell id="-e5JYh3tk_dBkfc9BK_Y-205" style="edgeStyle=orthogonalEdgeStyle;rounded=0;orthogonalLoop=1;jettySize=auto;html=1;" parent="1" source="-e5JYh3tk_dBkfc9BK_Y-206" target="-e5JYh3tk_dBkfc9BK_Y-195" edge="1">
          <mxGeometry relative="1" as="geometry">
            <Array as="points">
              <mxPoint x="224" y="3950" />
            </Array>
          </mxGeometry>
        </mxCell>
        <mxCell id="-e5JYh3tk_dBkfc9BK_Y-206" value="&lt;div&gt;Shifted Mask&amp;nbsp;&lt;/div&gt;&lt;div&gt;&amp;nbsp;3D img&lt;/div&gt;" style="ellipse;whiteSpace=wrap;html=1;" parent="1" vertex="1">
          <mxGeometry x="173.78999999999996" y="3935" width="100" height="50" as="geometry" />
        </mxCell>
        <mxCell id="-e5JYh3tk_dBkfc9BK_Y-207" value="Mask Table" style="ellipse;whiteSpace=wrap;html=1;" parent="1" vertex="1">
          <mxGeometry x="390" y="4020" width="100" height="50" as="geometry" />
        </mxCell>
        <mxCell id="-e5JYh3tk_dBkfc9BK_Y-208" style="edgeStyle=orthogonalEdgeStyle;rounded=0;orthogonalLoop=1;jettySize=auto;html=1;entryX=1;entryY=0.5;entryDx=0;entryDy=0;" parent="1" source="-e5JYh3tk_dBkfc9BK_Y-209" target="-e5JYh3tk_dBkfc9BK_Y-193" edge="1">
          <mxGeometry relative="1" as="geometry">
            <Array as="points">
              <mxPoint x="620" y="3590" />
            </Array>
          </mxGeometry>
        </mxCell>
        <mxCell id="-e5JYh3tk_dBkfc9BK_Y-209" value="Shift_Table" style="ellipse;whiteSpace=wrap;html=1;" parent="1" vertex="1">
          <mxGeometry x="570" y="3450" width="100" height="50" as="geometry" />
        </mxCell>
        <mxCell id="-e5JYh3tk_dBkfc9BK_Y-210" value="Pre-processing" style="text;html=1;align=center;verticalAlign=middle;resizable=0;points=[];autosize=1;strokeColor=none;fillColor=none;" parent="1" vertex="1">
          <mxGeometry x="480" y="3390" width="100" height="30" as="geometry" />
        </mxCell>
        <mxCell id="-e5JYh3tk_dBkfc9BK_Y-211" value="&lt;div&gt;Mask (DAPI, mask0,...) Pipeline&lt;/div&gt;" style="text;html=1;align=center;verticalAlign=middle;resizable=0;points=[];autosize=1;strokeColor=none;fillColor=none;rotation=-90;" parent="1" vertex="1">
          <mxGeometry x="230.78999999999996" y="3770" width="190" height="30" as="geometry" />
        </mxCell>
        <mxCell id="-e5JYh3tk_dBkfc9BK_Y-212" value="Shift Table" style="ellipse;whiteSpace=wrap;html=1;" parent="1" vertex="1">
          <mxGeometry x="570" y="3565" width="100" height="50" as="geometry" />
        </mxCell>
        <mxCell id="-e5JYh3tk_dBkfc9BK_Y-213" style="edgeStyle=orthogonalEdgeStyle;rounded=0;orthogonalLoop=1;jettySize=auto;html=1;entryX=0.5;entryY=0;entryDx=0;entryDy=0;" parent="1" source="-e5JYh3tk_dBkfc9BK_Y-214" target="-e5JYh3tk_dBkfc9BK_Y-200" edge="1">
          <mxGeometry relative="1" as="geometry" />
        </mxCell>
        <mxCell id="-e5JYh3tk_dBkfc9BK_Y-214" value="&lt;div&gt;Load&lt;/div&gt;" style="rounded=0;whiteSpace=wrap;html=1;" parent="1" vertex="1">
          <mxGeometry x="407.5" y="3400" width="65" height="35" as="geometry" />
        </mxCell>
        <mxCell id="-e5JYh3tk_dBkfc9BK_Y-215" value="&lt;div&gt;Load&lt;/div&gt;" style="rounded=0;whiteSpace=wrap;html=1;" parent="1" vertex="1">
          <mxGeometry x="589.5" y="3394.9700000000003" width="65" height="35" as="geometry" />
        </mxCell>
        <mxCell id="-e5JYh3tk_dBkfc9BK_Y-216" style="edgeStyle=orthogonalEdgeStyle;rounded=0;orthogonalLoop=1;jettySize=auto;html=1;entryX=0.519;entryY=-0.018;entryDx=0;entryDy=0;entryPerimeter=0;" parent="1" source="-e5JYh3tk_dBkfc9BK_Y-215" target="-e5JYh3tk_dBkfc9BK_Y-209" edge="1">
          <mxGeometry relative="1" as="geometry" />
        </mxCell>
        <mxCell id="-e5JYh3tk_dBkfc9BK_Y-217" style="edgeStyle=orthogonalEdgeStyle;rounded=0;orthogonalLoop=1;jettySize=auto;html=1;" parent="1" source="-e5JYh3tk_dBkfc9BK_Y-218" target="-e5JYh3tk_dBkfc9BK_Y-220" edge="1">
          <mxGeometry relative="1" as="geometry" />
        </mxCell>
        <mxCell id="-e5JYh3tk_dBkfc9BK_Y-224" style="edgeStyle=orthogonalEdgeStyle;rounded=0;orthogonalLoop=1;jettySize=auto;html=1;" parent="1" source="-e5JYh3tk_dBkfc9BK_Y-218" target="-e5JYh3tk_dBkfc9BK_Y-223" edge="1">
          <mxGeometry relative="1" as="geometry" />
        </mxCell>
        <mxCell id="-e5JYh3tk_dBkfc9BK_Y-218" value="Filter Mask" style="rounded=0;whiteSpace=wrap;html=1;" parent="1" vertex="1">
          <mxGeometry x="380" y="4090" width="120" height="60" as="geometry" />
        </mxCell>
        <mxCell id="-e5JYh3tk_dBkfc9BK_Y-219" style="edgeStyle=orthogonalEdgeStyle;rounded=0;orthogonalLoop=1;jettySize=auto;html=1;entryX=0.5;entryY=0;entryDx=0;entryDy=0;" parent="1" target="-e5JYh3tk_dBkfc9BK_Y-218" edge="1">
          <mxGeometry relative="1" as="geometry">
            <mxPoint x="440" y="4070" as="sourcePoint" />
          </mxGeometry>
        </mxCell>
        <mxCell id="-e5JYh3tk_dBkfc9BK_Y-220" value="Filtered mask table" style="ellipse;whiteSpace=wrap;html=1;" parent="1" vertex="1">
          <mxGeometry x="460" y="4220" width="110" height="60" as="geometry" />
        </mxCell>
        <mxCell id="-e5JYh3tk_dBkfc9BK_Y-222" value="Segmented shifted mask 3D img" style="ellipse;whiteSpace=wrap;html=1;" parent="1" vertex="1">
          <mxGeometry x="151.88999999999987" y="4090" width="110" height="60" as="geometry" />
        </mxCell>
        <mxCell id="-e5JYh3tk_dBkfc9BK_Y-223" value="&lt;div&gt;Filtered 3D&amp;nbsp;&lt;/div&gt;&lt;div&gt;masked img&lt;/div&gt;" style="ellipse;whiteSpace=wrap;html=1;" parent="1" vertex="1">
          <mxGeometry x="310.78999999999996" y="4220" width="110" height="60" as="geometry" />
        </mxCell>
        <mxCell id="-e5JYh3tk_dBkfc9BK_Y-225" value="&lt;div&gt;&lt;br&gt;&lt;/div&gt;&lt;div&gt;&lt;br&gt;&lt;/div&gt;&lt;div&gt;&lt;br&gt;&lt;/div&gt;&lt;div&gt;&lt;br&gt;&lt;/div&gt;&lt;div&gt;&lt;br&gt;&lt;/div&gt;&lt;div&gt;&lt;br&gt;&lt;/div&gt;&lt;div&gt;&lt;br&gt;&lt;/div&gt;&lt;div&gt;&lt;br&gt;&lt;/div&gt;&lt;div&gt;&lt;br&gt;&lt;/div&gt;&lt;div&gt;&lt;br&gt;&lt;/div&gt;&lt;div&gt;&lt;br&gt;&lt;/div&gt;&lt;div&gt;&lt;br&gt;&lt;/div&gt;&lt;div&gt;&lt;br&gt;&lt;/div&gt;&lt;div&gt;&lt;br&gt;&lt;/div&gt;&lt;div&gt;&lt;br&gt;&lt;/div&gt;&lt;div&gt;&lt;br&gt;&lt;/div&gt;&lt;div&gt;&lt;br&gt;&lt;/div&gt;&lt;div&gt;&lt;br&gt;&lt;/div&gt;&lt;div&gt;&lt;br&gt;&lt;/div&gt;&lt;div&gt;&lt;br&gt;&lt;/div&gt;&lt;div&gt;&lt;br&gt;&lt;/div&gt;&lt;div&gt;&lt;br&gt;&lt;/div&gt;&lt;div&gt;&lt;br&gt;&lt;/div&gt;&lt;div&gt;&lt;br&gt;&lt;/div&gt;&lt;div&gt;&lt;br&gt;&lt;/div&gt;&lt;div&gt;&lt;br&gt;&lt;/div&gt;&lt;div&gt;&lt;br&gt;&lt;/div&gt;&lt;div&gt;&lt;br&gt;&lt;/div&gt;&lt;div&gt;&lt;br&gt;&lt;/div&gt;&lt;div&gt;&lt;br&gt;&lt;/div&gt;&lt;div&gt;&lt;br&gt;&lt;/div&gt;&lt;div&gt;&lt;br&gt;&lt;/div&gt;&lt;div&gt;&lt;br&gt;&lt;/div&gt;&lt;div&gt;&lt;br&gt;&lt;/div&gt;&lt;div&gt;Data to keep during all pipeline analysis&lt;/div&gt;" style="rounded=0;whiteSpace=wrap;html=1;" parent="1" vertex="1">
          <mxGeometry x="1325" y="3570" width="300" height="610" as="geometry" />
        </mxCell>
        <mxCell id="-e5JYh3tk_dBkfc9BK_Y-226" value="&lt;br&gt;&lt;div&gt;&lt;br&gt;&lt;/div&gt;&lt;div&gt;&lt;br&gt;&lt;/div&gt;&lt;div&gt;&lt;br&gt;&lt;/div&gt;&lt;div&gt;&lt;br&gt;&lt;/div&gt;&lt;div&gt;&lt;br&gt;&lt;/div&gt;&lt;div&gt;&lt;br&gt;&lt;/div&gt;&lt;div&gt;&lt;br&gt;&lt;/div&gt;&lt;div&gt;&lt;br&gt;&lt;/div&gt;&lt;div&gt;&lt;br&gt;&lt;/div&gt;&lt;div&gt;&lt;br&gt;&lt;/div&gt;&lt;div&gt;&lt;br&gt;&lt;/div&gt;&lt;div&gt;&lt;br&gt;&lt;/div&gt;&lt;div&gt;&lt;br&gt;&lt;/div&gt;&lt;div&gt;&lt;br&gt;&lt;/div&gt;&lt;div&gt;&lt;br&gt;&lt;/div&gt;&lt;div&gt;&lt;br&gt;&lt;/div&gt;&lt;div&gt;&lt;br&gt;&lt;/div&gt;&lt;div&gt;&lt;br&gt;&lt;/div&gt;&lt;div&gt;&lt;br&gt;&lt;/div&gt;&lt;div&gt;&lt;br&gt;&lt;/div&gt;&lt;div&gt;&lt;br&gt;&lt;/div&gt;&lt;div&gt;&lt;br&gt;&lt;/div&gt;&lt;div&gt;&lt;br&gt;&lt;/div&gt;&lt;div&gt;&lt;br&gt;&lt;/div&gt;&lt;div&gt;&lt;br&gt;&lt;/div&gt;&lt;div&gt;NO&lt;/div&gt;&lt;div&gt;Data to keep during this pipeline analysis&lt;/div&gt;" style="rounded=0;whiteSpace=wrap;html=1;" parent="1" vertex="1">
          <mxGeometry x="905" y="3570" width="153.79" height="610" as="geometry" />
        </mxCell>
        <mxCell id="-e5JYh3tk_dBkfc9BK_Y-227" value="" style="rounded=0;whiteSpace=wrap;html=1;" parent="1" vertex="1">
          <mxGeometry x="1065" y="3570" width="240" height="610" as="geometry" />
        </mxCell>
        <mxCell id="-e5JYh3tk_dBkfc9BK_Y-228" value="" style="rounded=1;whiteSpace=wrap;html=1;" parent="1" vertex="1">
          <mxGeometry x="1115" y="3400" width="510" height="160" as="geometry" />
        </mxCell>
        <mxCell id="-e5JYh3tk_dBkfc9BK_Y-229" style="edgeStyle=orthogonalEdgeStyle;rounded=0;orthogonalLoop=1;jettySize=auto;html=1;entryX=0.5;entryY=0;entryDx=0;entryDy=0;" parent="1" source="-e5JYh3tk_dBkfc9BK_Y-230" target="-e5JYh3tk_dBkfc9BK_Y-239" edge="1">
          <mxGeometry relative="1" as="geometry" />
        </mxCell>
        <mxCell id="-e5JYh3tk_dBkfc9BK_Y-230" value="Filter barcode" style="rounded=0;whiteSpace=wrap;html=1;" parent="1" vertex="1">
          <mxGeometry x="1155" y="3580" width="120" height="60" as="geometry" />
        </mxCell>
        <mxCell id="-e5JYh3tk_dBkfc9BK_Y-231" style="edgeStyle=orthogonalEdgeStyle;rounded=0;orthogonalLoop=1;jettySize=auto;html=1;entryX=0.5;entryY=0;entryDx=0;entryDy=0;" parent="1" source="-e5JYh3tk_dBkfc9BK_Y-232" target="-e5JYh3tk_dBkfc9BK_Y-245" edge="1">
          <mxGeometry relative="1" as="geometry" />
        </mxCell>
        <mxCell id="-e5JYh3tk_dBkfc9BK_Y-232" value="Labelling" style="rounded=0;whiteSpace=wrap;html=1;" parent="1" vertex="1">
          <mxGeometry x="1155" y="3950" width="120" height="60" as="geometry" />
        </mxCell>
        <mxCell id="-e5JYh3tk_dBkfc9BK_Y-233" style="edgeStyle=orthogonalEdgeStyle;rounded=0;orthogonalLoop=1;jettySize=auto;html=1;entryX=0.5;entryY=0;entryDx=0;entryDy=0;" parent="1" source="-e5JYh3tk_dBkfc9BK_Y-234" target="-e5JYh3tk_dBkfc9BK_Y-242" edge="1">
          <mxGeometry relative="1" as="geometry" />
        </mxCell>
        <mxCell id="-e5JYh3tk_dBkfc9BK_Y-234" value="Register local" style="rounded=0;whiteSpace=wrap;html=1;" parent="1" vertex="1">
          <mxGeometry x="1155" y="3760" width="120" height="60" as="geometry" />
        </mxCell>
        <mxCell id="-e5JYh3tk_dBkfc9BK_Y-235" style="edgeStyle=orthogonalEdgeStyle;rounded=0;orthogonalLoop=1;jettySize=auto;html=1;entryX=0.5;entryY=0;entryDx=0;entryDy=0;" parent="1" source="-e5JYh3tk_dBkfc9BK_Y-237" target="-e5JYh3tk_dBkfc9BK_Y-230" edge="1">
          <mxGeometry relative="1" as="geometry" />
        </mxCell>
        <mxCell id="-e5JYh3tk_dBkfc9BK_Y-237" value="Barcode table" style="ellipse;whiteSpace=wrap;html=1;" parent="1" vertex="1">
          <mxGeometry x="1165" y="3472" width="100" height="50" as="geometry" />
        </mxCell>
        <mxCell id="-e5JYh3tk_dBkfc9BK_Y-238" style="edgeStyle=orthogonalEdgeStyle;rounded=0;orthogonalLoop=1;jettySize=auto;html=1;entryX=0.5;entryY=0;entryDx=0;entryDy=0;" parent="1" source="-e5JYh3tk_dBkfc9BK_Y-239" target="-e5JYh3tk_dBkfc9BK_Y-234" edge="1">
          <mxGeometry relative="1" as="geometry" />
        </mxCell>
        <mxCell id="-e5JYh3tk_dBkfc9BK_Y-239" value="Filtered Barcode table" style="ellipse;whiteSpace=wrap;html=1;" parent="1" vertex="1">
          <mxGeometry x="1165" y="3670" width="100" height="50" as="geometry" />
        </mxCell>
        <mxCell id="-e5JYh3tk_dBkfc9BK_Y-240" style="edgeStyle=orthogonalEdgeStyle;rounded=0;orthogonalLoop=1;jettySize=auto;html=1;" parent="1" source="-e5JYh3tk_dBkfc9BK_Y-242" target="-e5JYh3tk_dBkfc9BK_Y-232" edge="1">
          <mxGeometry relative="1" as="geometry" />
        </mxCell>
        <mxCell id="-e5JYh3tk_dBkfc9BK_Y-242" value="Registered and filtered barcode table" style="ellipse;whiteSpace=wrap;html=1;" parent="1" vertex="1">
          <mxGeometry x="1160" y="3850" width="110" height="60" as="geometry" />
        </mxCell>
        <mxCell id="-e5JYh3tk_dBkfc9BK_Y-245" value="Trace Table" style="ellipse;whiteSpace=wrap;html=1;" parent="1" vertex="1">
          <mxGeometry x="1165" y="4040" width="100" height="50" as="geometry" />
        </mxCell>
        <mxCell id="-e5JYh3tk_dBkfc9BK_Y-246" style="edgeStyle=orthogonalEdgeStyle;rounded=0;orthogonalLoop=1;jettySize=auto;html=1;entryX=1;entryY=0.5;entryDx=0;entryDy=0;" parent="1" source="-e5JYh3tk_dBkfc9BK_Y-247" target="-e5JYh3tk_dBkfc9BK_Y-234" edge="1">
          <mxGeometry relative="1" as="geometry">
            <Array as="points">
              <mxPoint x="1395" y="3790" />
            </Array>
          </mxGeometry>
        </mxCell>
        <mxCell id="-e5JYh3tk_dBkfc9BK_Y-247" value="Z,X,Y block shifts table" style="ellipse;whiteSpace=wrap;html=1;" parent="1" vertex="1">
          <mxGeometry x="1345" y="3470" width="100" height="50" as="geometry" />
        </mxCell>
        <mxCell id="-e5JYh3tk_dBkfc9BK_Y-248" value="Pre-processing" style="text;html=1;align=center;verticalAlign=middle;resizable=0;points=[];autosize=1;strokeColor=none;fillColor=none;" parent="1" vertex="1">
          <mxGeometry x="1255" y="3410" width="100" height="30" as="geometry" />
        </mxCell>
        <mxCell id="-e5JYh3tk_dBkfc9BK_Y-249" value="&lt;div&gt;Trace Pipeline&lt;/div&gt;" style="text;html=1;align=center;verticalAlign=middle;resizable=0;points=[];autosize=1;strokeColor=none;fillColor=none;rotation=-90;" parent="1" vertex="1">
          <mxGeometry x="1050.79" y="3790" width="100" height="30" as="geometry" />
        </mxCell>
        <mxCell id="-e5JYh3tk_dBkfc9BK_Y-250" value="Z,X,Y block shifts table" style="ellipse;whiteSpace=wrap;html=1;" parent="1" vertex="1">
          <mxGeometry x="1347" y="3765" width="100" height="50" as="geometry" />
        </mxCell>
        <mxCell id="-e5JYh3tk_dBkfc9BK_Y-251" style="edgeStyle=orthogonalEdgeStyle;rounded=0;orthogonalLoop=1;jettySize=auto;html=1;entryX=0.5;entryY=0;entryDx=0;entryDy=0;" parent="1" source="-e5JYh3tk_dBkfc9BK_Y-252" target="-e5JYh3tk_dBkfc9BK_Y-237" edge="1">
          <mxGeometry relative="1" as="geometry" />
        </mxCell>
        <mxCell id="-e5JYh3tk_dBkfc9BK_Y-252" value="&lt;div&gt;Load&lt;/div&gt;" style="rounded=0;whiteSpace=wrap;html=1;" parent="1" vertex="1">
          <mxGeometry x="1182.5" y="3420" width="65" height="35" as="geometry" />
        </mxCell>
        <mxCell id="-e5JYh3tk_dBkfc9BK_Y-253" value="&lt;div&gt;Load&lt;/div&gt;" style="rounded=0;whiteSpace=wrap;html=1;" parent="1" vertex="1">
          <mxGeometry x="1364.5" y="3414.9700000000003" width="65" height="35" as="geometry" />
        </mxCell>
        <mxCell id="-e5JYh3tk_dBkfc9BK_Y-254" style="edgeStyle=orthogonalEdgeStyle;rounded=0;orthogonalLoop=1;jettySize=auto;html=1;entryX=0.519;entryY=-0.018;entryDx=0;entryDy=0;entryPerimeter=0;" parent="1" source="-e5JYh3tk_dBkfc9BK_Y-253" target="-e5JYh3tk_dBkfc9BK_Y-247" edge="1">
          <mxGeometry relative="1" as="geometry" />
        </mxCell>
        <mxCell id="-e5JYh3tk_dBkfc9BK_Y-255" style="edgeStyle=orthogonalEdgeStyle;rounded=0;orthogonalLoop=1;jettySize=auto;html=1;" parent="1" source="-e5JYh3tk_dBkfc9BK_Y-257" target="-e5JYh3tk_dBkfc9BK_Y-259" edge="1">
          <mxGeometry relative="1" as="geometry" />
        </mxCell>
        <mxCell id="-e5JYh3tk_dBkfc9BK_Y-256" style="edgeStyle=orthogonalEdgeStyle;rounded=0;orthogonalLoop=1;jettySize=auto;html=1;" parent="1" source="-e5JYh3tk_dBkfc9BK_Y-257" target="-e5JYh3tk_dBkfc9BK_Y-261" edge="1">
          <mxGeometry relative="1" as="geometry" />
        </mxCell>
        <mxCell id="-e5JYh3tk_dBkfc9BK_Y-257" value="Visualization" style="rounded=0;whiteSpace=wrap;html=1;" parent="1" vertex="1">
          <mxGeometry x="1155" y="4110" width="120" height="60" as="geometry" />
        </mxCell>
        <mxCell id="-e5JYh3tk_dBkfc9BK_Y-258" style="edgeStyle=orthogonalEdgeStyle;rounded=0;orthogonalLoop=1;jettySize=auto;html=1;entryX=0.5;entryY=0;entryDx=0;entryDy=0;" parent="1" target="-e5JYh3tk_dBkfc9BK_Y-257" edge="1">
          <mxGeometry relative="1" as="geometry">
            <mxPoint x="1215" y="4090" as="sourcePoint" />
          </mxGeometry>
        </mxCell>
        <mxCell id="-e5JYh3tk_dBkfc9BK_Y-259" value="PNG, GIF, ..." style="ellipse;whiteSpace=wrap;html=1;" parent="1" vertex="1">
          <mxGeometry x="1235" y="4240" width="110" height="60" as="geometry" />
        </mxCell>
        <mxCell id="-e5JYh3tk_dBkfc9BK_Y-261" value="Matrices" style="ellipse;whiteSpace=wrap;html=1;" parent="1" vertex="1">
          <mxGeometry x="1085.79" y="4240" width="110" height="60" as="geometry" />
        </mxCell>
        <mxCell id="-e5JYh3tk_dBkfc9BK_Y-265" style="edgeStyle=orthogonalEdgeStyle;rounded=0;orthogonalLoop=1;jettySize=auto;html=1;entryX=1;entryY=0.5;entryDx=0;entryDy=0;" parent="1" source="-e5JYh3tk_dBkfc9BK_Y-262" target="-e5JYh3tk_dBkfc9BK_Y-232" edge="1">
          <mxGeometry relative="1" as="geometry">
            <Array as="points">
              <mxPoint x="1525" y="3980" />
            </Array>
          </mxGeometry>
        </mxCell>
        <mxCell id="-e5JYh3tk_dBkfc9BK_Y-262" value="Segmented shifted mask 3D img" style="ellipse;whiteSpace=wrap;html=1;" parent="1" vertex="1">
          <mxGeometry x="1475" y="3470" width="100" height="50" as="geometry" />
        </mxCell>
        <mxCell id="-e5JYh3tk_dBkfc9BK_Y-263" value="&lt;div&gt;Load&lt;/div&gt;" style="rounded=0;whiteSpace=wrap;html=1;" parent="1" vertex="1">
          <mxGeometry x="1494.5" y="3414.9700000000003" width="65" height="35" as="geometry" />
        </mxCell>
        <mxCell id="-e5JYh3tk_dBkfc9BK_Y-264" style="edgeStyle=orthogonalEdgeStyle;rounded=0;orthogonalLoop=1;jettySize=auto;html=1;entryX=0.519;entryY=-0.018;entryDx=0;entryDy=0;entryPerimeter=0;" parent="1" source="-e5JYh3tk_dBkfc9BK_Y-263" target="-e5JYh3tk_dBkfc9BK_Y-262" edge="1">
          <mxGeometry relative="1" as="geometry" />
        </mxCell>
        <mxCell id="-e5JYh3tk_dBkfc9BK_Y-266" value=" 3D&amp;nbsp;masked img" style="ellipse;whiteSpace=wrap;html=1;" parent="1" vertex="1">
          <mxGeometry x="1477" y="3955" width="100" height="50" as="geometry" />
        </mxCell>
        <mxCell id="-e5JYh3tk_dBkfc9BK_Y-267" value="" style="edgeStyle=orthogonalEdgeStyle;rounded=0;orthogonalLoop=1;jettySize=auto;html=1;entryX=0.5;entryY=0;entryDx=0;entryDy=0;" parent="1" source="-e5JYh3tk_dBkfc9BK_Y-130" target="-e5JYh3tk_dBkfc9BK_Y-140" edge="1">
          <mxGeometry relative="1" as="geometry">
            <mxPoint x="795.7099999999999" y="2442" as="sourcePoint" />
            <mxPoint x="400.71" y="2720" as="targetPoint" />
            <Array as="points" />
          </mxGeometry>
        </mxCell>
        <mxCell id="-e5JYh3tk_dBkfc9BK_Y-140" value="reference 2D img" style="ellipse;whiteSpace=wrap;html=1;" parent="1" vertex="1">
          <mxGeometry x="709.7099999999999" y="2695" width="100" height="50" as="geometry" />
        </mxCell>
        <mxCell id="-e5JYh3tk_dBkfc9BK_Y-274" value="2D reference" style="ellipse;whiteSpace=wrap;html=1;fillColor=none;" parent="1" vertex="1">
          <mxGeometry x="1141.64" y="1166" width="89" height="40" as="geometry" />
        </mxCell>
        <mxCell id="-e5JYh3tk_dBkfc9BK_Y-277" style="edgeStyle=orthogonalEdgeStyle;rounded=0;orthogonalLoop=1;jettySize=auto;html=1;entryX=0.909;entryY=-0.008;entryDx=0;entryDy=0;entryPerimeter=0;fillColor=none;" parent="1" source="-e5JYh3tk_dBkfc9BK_Y-274" target="bHEL2EoI4zcogpbZpF7H-130" edge="1">
          <mxGeometry relative="1" as="geometry" />
        </mxCell>
        <mxCell id="-e5JYh3tk_dBkfc9BK_Y-279" style="edgeStyle=orthogonalEdgeStyle;rounded=0;orthogonalLoop=1;jettySize=auto;html=1;fillColor=none;" parent="1" source="-e5JYh3tk_dBkfc9BK_Y-280" edge="1">
          <mxGeometry relative="1" as="geometry">
            <mxPoint x="1307.07" y="1236" as="targetPoint" />
            <Array as="points">
              <mxPoint x="1307.07" y="1226" />
              <mxPoint x="1307.07" y="1226" />
            </Array>
          </mxGeometry>
        </mxCell>
        <mxCell id="-e5JYh3tk_dBkfc9BK_Y-280" value="3D image" style="ellipse;whiteSpace=wrap;html=1;fillColor=none;" parent="1" vertex="1">
          <mxGeometry x="1262.9999999999998" y="1166" width="89" height="40" as="geometry" />
        </mxCell>
        <mxCell id="-e5JYh3tk_dBkfc9BK_Y-281" value="(X,Y) shift table" style="ellipse;whiteSpace=wrap;html=1;fillColor=none;" parent="1" vertex="1">
          <mxGeometry x="1361.71" y="1166" width="89" height="40" as="geometry" />
        </mxCell>
        <mxCell id="-e5JYh3tk_dBkfc9BK_Y-282" style="edgeStyle=orthogonalEdgeStyle;rounded=0;orthogonalLoop=1;jettySize=auto;html=1;entryX=0.909;entryY=-0.008;entryDx=0;entryDy=0;entryPerimeter=0;fillColor=none;" parent="1" source="-e5JYh3tk_dBkfc9BK_Y-281" edge="1">
          <mxGeometry relative="1" as="geometry">
            <mxPoint x="1406.07" y="1236" as="targetPoint" />
          </mxGeometry>
        </mxCell>
        <mxCell id="-e5JYh3tk_dBkfc9BK_Y-284" style="edgeStyle=orthogonalEdgeStyle;rounded=0;orthogonalLoop=1;jettySize=auto;html=1;fillColor=none;" parent="1" source="-e5JYh3tk_dBkfc9BK_Y-285" target="-e5JYh3tk_dBkfc9BK_Y-288" edge="1">
          <mxGeometry relative="1" as="geometry" />
        </mxCell>
        <mxCell id="-e5JYh3tk_dBkfc9BK_Y-285" value="register_local" style="rounded=0;whiteSpace=wrap;html=1;fillColor=none;" parent="1" vertex="1">
          <mxGeometry x="1519.15" y="1236" width="120" height="60" as="geometry" />
        </mxCell>
        <mxCell id="-e5JYh3tk_dBkfc9BK_Y-286" style="edgeStyle=orthogonalEdgeStyle;rounded=0;orthogonalLoop=1;jettySize=auto;html=1;fillColor=none;" parent="1" source="-e5JYh3tk_dBkfc9BK_Y-287" target="-e5JYh3tk_dBkfc9BK_Y-285" edge="1">
          <mxGeometry relative="1" as="geometry">
            <Array as="points">
              <mxPoint x="1529.3600000000001" y="1226" />
              <mxPoint x="1529.3600000000001" y="1226" />
            </Array>
          </mxGeometry>
        </mxCell>
        <mxCell id="-e5JYh3tk_dBkfc9BK_Y-287" value="shifted 3D image" style="ellipse;whiteSpace=wrap;html=1;fillColor=none;" parent="1" vertex="1">
          <mxGeometry x="1485.29" y="1166" width="89" height="40" as="geometry" />
        </mxCell>
        <mxCell id="-e5JYh3tk_dBkfc9BK_Y-288" value="&lt;div&gt;(Z,X,Y) block&amp;nbsp;&lt;/div&gt;&lt;div&gt;shift table&lt;/div&gt;" style="ellipse;whiteSpace=wrap;html=1;fillColor=none;" parent="1" vertex="1">
          <mxGeometry x="1529.98" y="1322" width="98.35" height="44" as="geometry" />
        </mxCell>
        <mxCell id="-e5JYh3tk_dBkfc9BK_Y-289" value="3D reference" style="ellipse;whiteSpace=wrap;html=1;fillColor=none;" parent="1" vertex="1">
          <mxGeometry x="1584" y="1166" width="89" height="40" as="geometry" />
        </mxCell>
        <mxCell id="-e5JYh3tk_dBkfc9BK_Y-290" style="edgeStyle=orthogonalEdgeStyle;rounded=0;orthogonalLoop=1;jettySize=auto;html=1;entryX=0.909;entryY=-0.008;entryDx=0;entryDy=0;entryPerimeter=0;fillColor=none;" parent="1" source="-e5JYh3tk_dBkfc9BK_Y-289" target="-e5JYh3tk_dBkfc9BK_Y-285" edge="1">
          <mxGeometry relative="1" as="geometry" />
        </mxCell>
        <mxCell id="-e5JYh3tk_dBkfc9BK_Y-293" style="edgeStyle=orthogonalEdgeStyle;rounded=0;orthogonalLoop=1;jettySize=auto;html=1;entryX=0.5;entryY=0;entryDx=0;entryDy=0;fillColor=none;" parent="1" source="-e5JYh3tk_dBkfc9BK_Y-294" target="-e5JYh3tk_dBkfc9BK_Y-295" edge="1">
          <mxGeometry relative="1" as="geometry" />
        </mxCell>
        <mxCell id="-e5JYh3tk_dBkfc9BK_Y-294" value="extract" style="rounded=0;whiteSpace=wrap;html=1;fillColor=none;" parent="1" vertex="1">
          <mxGeometry x="1070.85" y="1603" width="120" height="60" as="geometry" />
        </mxCell>
        <mxCell id="-e5JYh3tk_dBkfc9BK_Y-295" value="Table" style="ellipse;whiteSpace=wrap;html=1;fillColor=none;" parent="1" vertex="1">
          <mxGeometry x="1081.1" y="1687" width="99.5" height="46" as="geometry" />
        </mxCell>
        <mxCell id="-e5JYh3tk_dBkfc9BK_Y-296" style="edgeStyle=orthogonalEdgeStyle;rounded=0;orthogonalLoop=1;jettySize=auto;html=1;fillColor=none;" parent="1" source="-e5JYh3tk_dBkfc9BK_Y-297" edge="1">
          <mxGeometry relative="1" as="geometry">
            <mxPoint x="1081.07" y="1603" as="targetPoint" />
            <Array as="points">
              <mxPoint x="1081.07" y="1593" />
              <mxPoint x="1081.07" y="1593" />
            </Array>
          </mxGeometry>
        </mxCell>
        <mxCell id="-e5JYh3tk_dBkfc9BK_Y-297" value="Segmented 3D image" style="ellipse;whiteSpace=wrap;html=1;fillColor=none;" parent="1" vertex="1">
          <mxGeometry x="1037" y="1515" width="89" height="58" as="geometry" />
        </mxCell>
        <mxCell id="-e5JYh3tk_dBkfc9BK_Y-298" value="3D image" style="ellipse;whiteSpace=wrap;html=1;fillColor=none;" parent="1" vertex="1">
          <mxGeometry x="1135.71" y="1533" width="89" height="40" as="geometry" />
        </mxCell>
        <mxCell id="-e5JYh3tk_dBkfc9BK_Y-299" style="edgeStyle=orthogonalEdgeStyle;rounded=0;orthogonalLoop=1;jettySize=auto;html=1;entryX=0.909;entryY=-0.008;entryDx=0;entryDy=0;entryPerimeter=0;fillColor=none;" parent="1" source="-e5JYh3tk_dBkfc9BK_Y-298" edge="1">
          <mxGeometry relative="1" as="geometry">
            <mxPoint x="1180.07" y="1603" as="targetPoint" />
          </mxGeometry>
        </mxCell>
        <mxCell id="-e5JYh3tk_dBkfc9BK_Y-310" style="edgeStyle=orthogonalEdgeStyle;rounded=0;orthogonalLoop=1;jettySize=auto;html=1;fillColor=none;" parent="1" source="-e5JYh3tk_dBkfc9BK_Y-302" target="-e5JYh3tk_dBkfc9BK_Y-308" edge="1">
          <mxGeometry relative="1" as="geometry">
            <Array as="points">
              <mxPoint x="1302" y="1665" />
              <mxPoint x="1302" y="1665" />
            </Array>
          </mxGeometry>
        </mxCell>
        <mxCell id="-e5JYh3tk_dBkfc9BK_Y-311" style="edgeStyle=orthogonalEdgeStyle;rounded=0;orthogonalLoop=1;jettySize=auto;html=1;fillColor=none;" parent="1" source="-e5JYh3tk_dBkfc9BK_Y-302" target="-e5JYh3tk_dBkfc9BK_Y-309" edge="1">
          <mxGeometry relative="1" as="geometry">
            <Array as="points">
              <mxPoint x="1397" y="1675" />
              <mxPoint x="1397" y="1675" />
            </Array>
          </mxGeometry>
        </mxCell>
        <mxCell id="-e5JYh3tk_dBkfc9BK_Y-302" value="filter_mask" style="rounded=0;whiteSpace=wrap;html=1;fillColor=none;" parent="1" vertex="1">
          <mxGeometry x="1290.1399999999999" y="1603" width="120" height="60" as="geometry" />
        </mxCell>
        <mxCell id="-e5JYh3tk_dBkfc9BK_Y-304" style="edgeStyle=orthogonalEdgeStyle;rounded=0;orthogonalLoop=1;jettySize=auto;html=1;fillColor=none;" parent="1" source="-e5JYh3tk_dBkfc9BK_Y-305" edge="1">
          <mxGeometry relative="1" as="geometry">
            <mxPoint x="1300.36" y="1603" as="targetPoint" />
            <Array as="points">
              <mxPoint x="1300.36" y="1593" />
              <mxPoint x="1300.36" y="1593" />
            </Array>
          </mxGeometry>
        </mxCell>
        <mxCell id="-e5JYh3tk_dBkfc9BK_Y-305" value="Mask table" style="ellipse;whiteSpace=wrap;html=1;fillColor=none;" parent="1" vertex="1">
          <mxGeometry x="1256.2899999999997" y="1533" width="89" height="40" as="geometry" />
        </mxCell>
        <mxCell id="-e5JYh3tk_dBkfc9BK_Y-306" value="Segmented 3D mask" style="ellipse;whiteSpace=wrap;html=1;fillColor=none;" parent="1" vertex="1">
          <mxGeometry x="1355" y="1515" width="89" height="58" as="geometry" />
        </mxCell>
        <mxCell id="-e5JYh3tk_dBkfc9BK_Y-307" style="edgeStyle=orthogonalEdgeStyle;rounded=0;orthogonalLoop=1;jettySize=auto;html=1;entryX=0.909;entryY=-0.008;entryDx=0;entryDy=0;entryPerimeter=0;fillColor=none;" parent="1" source="-e5JYh3tk_dBkfc9BK_Y-306" edge="1">
          <mxGeometry relative="1" as="geometry">
            <mxPoint x="1399.36" y="1603" as="targetPoint" />
          </mxGeometry>
        </mxCell>
        <mxCell id="-e5JYh3tk_dBkfc9BK_Y-308" value="Filtered mask table" style="ellipse;whiteSpace=wrap;html=1;fillColor=none;" parent="1" vertex="1">
          <mxGeometry x="1257.5" y="1685" width="89" height="53" as="geometry" />
        </mxCell>
        <mxCell id="-e5JYh3tk_dBkfc9BK_Y-309" value="Filtered segmented 3D mask" style="ellipse;whiteSpace=wrap;html=1;fillColor=none;" parent="1" vertex="1">
          <mxGeometry x="1357" y="1685" width="89" height="53" as="geometry" />
        </mxCell>
        <mxCell id="-e5JYh3tk_dBkfc9BK_Y-312" style="edgeStyle=orthogonalEdgeStyle;rounded=0;orthogonalLoop=1;jettySize=auto;html=1;entryX=0.5;entryY=0;entryDx=0;entryDy=0;fillColor=none;" parent="1" source="-e5JYh3tk_dBkfc9BK_Y-313" target="-e5JYh3tk_dBkfc9BK_Y-316" edge="1">
          <mxGeometry relative="1" as="geometry" />
        </mxCell>
        <mxCell id="-e5JYh3tk_dBkfc9BK_Y-313" value="filter_localizations" style="rounded=0;whiteSpace=wrap;html=1;fillColor=none;" parent="1" vertex="1">
          <mxGeometry x="1516.1599999999999" y="1603" width="120" height="60" as="geometry" />
        </mxCell>
        <mxCell id="-e5JYh3tk_dBkfc9BK_Y-314" style="edgeStyle=orthogonalEdgeStyle;rounded=0;orthogonalLoop=1;jettySize=auto;html=1;entryX=0.5;entryY=0;entryDx=0;entryDy=0;fillColor=none;" parent="1" source="-e5JYh3tk_dBkfc9BK_Y-315" target="-e5JYh3tk_dBkfc9BK_Y-313" edge="1">
          <mxGeometry relative="1" as="geometry" />
        </mxCell>
        <mxCell id="-e5JYh3tk_dBkfc9BK_Y-315" value="Barcode table" style="ellipse;whiteSpace=wrap;html=1;fillColor=none;" parent="1" vertex="1">
          <mxGeometry x="1531.6599999999999" y="1533" width="89" height="40" as="geometry" />
        </mxCell>
        <mxCell id="-e5JYh3tk_dBkfc9BK_Y-316" value="Filtered barcode table" style="ellipse;whiteSpace=wrap;html=1;fillColor=none;" parent="1" vertex="1">
          <mxGeometry x="1523.48" y="1685" width="105.34" height="48" as="geometry" />
        </mxCell>
        <mxCell id="-e5JYh3tk_dBkfc9BK_Y-317" style="edgeStyle=orthogonalEdgeStyle;rounded=0;orthogonalLoop=1;jettySize=auto;html=1;fillColor=none;" parent="1" source="-e5JYh3tk_dBkfc9BK_Y-318" target="-e5JYh3tk_dBkfc9BK_Y-321" edge="1">
          <mxGeometry relative="1" as="geometry" />
        </mxCell>
        <mxCell id="-e5JYh3tk_dBkfc9BK_Y-318" value="register_localizations" style="rounded=0;whiteSpace=wrap;html=1;fillColor=none;" parent="1" vertex="1">
          <mxGeometry x="1003.86" y="1950" width="120" height="60" as="geometry" />
        </mxCell>
        <mxCell id="-e5JYh3tk_dBkfc9BK_Y-319" style="edgeStyle=orthogonalEdgeStyle;rounded=0;orthogonalLoop=1;jettySize=auto;html=1;fillColor=none;" parent="1" source="-e5JYh3tk_dBkfc9BK_Y-320" target="-e5JYh3tk_dBkfc9BK_Y-318" edge="1">
          <mxGeometry relative="1" as="geometry">
            <Array as="points">
              <mxPoint x="1014.07" y="1940" />
              <mxPoint x="1014.07" y="1940" />
            </Array>
          </mxGeometry>
        </mxCell>
        <mxCell id="-e5JYh3tk_dBkfc9BK_Y-320" value="Barcode Table" style="ellipse;whiteSpace=wrap;html=1;fillColor=none;" parent="1" vertex="1">
          <mxGeometry x="969.9999999999999" y="1880" width="89" height="40" as="geometry" />
        </mxCell>
        <mxCell id="-e5JYh3tk_dBkfc9BK_Y-321" value="Registered barcode table" style="ellipse;whiteSpace=wrap;html=1;fillColor=none;" parent="1" vertex="1">
          <mxGeometry x="1019.36" y="2040" width="89" height="40" as="geometry" />
        </mxCell>
        <mxCell id="-e5JYh3tk_dBkfc9BK_Y-322" value="(Z,X,Y) block shift table" style="ellipse;whiteSpace=wrap;html=1;fillColor=none;" parent="1" vertex="1">
          <mxGeometry x="1068.7100000000003" y="1880" width="89" height="40" as="geometry" />
        </mxCell>
        <mxCell id="-e5JYh3tk_dBkfc9BK_Y-323" style="edgeStyle=orthogonalEdgeStyle;rounded=0;orthogonalLoop=1;jettySize=auto;html=1;entryX=0.909;entryY=-0.008;entryDx=0;entryDy=0;entryPerimeter=0;fillColor=none;" parent="1" source="-e5JYh3tk_dBkfc9BK_Y-322" target="-e5JYh3tk_dBkfc9BK_Y-318" edge="1">
          <mxGeometry relative="1" as="geometry" />
        </mxCell>
        <mxCell id="-e5JYh3tk_dBkfc9BK_Y-324" style="edgeStyle=orthogonalEdgeStyle;rounded=0;orthogonalLoop=1;jettySize=auto;html=1;fillColor=none;" parent="1" source="-e5JYh3tk_dBkfc9BK_Y-325" target="-e5JYh3tk_dBkfc9BK_Y-328" edge="1">
          <mxGeometry relative="1" as="geometry" />
        </mxCell>
        <mxCell id="-e5JYh3tk_dBkfc9BK_Y-325" value="build_traces" style="rounded=0;whiteSpace=wrap;html=1;fillColor=none;" parent="1" vertex="1">
          <mxGeometry x="1207.0000000000002" y="1950" width="120" height="60" as="geometry" />
        </mxCell>
        <mxCell id="-e5JYh3tk_dBkfc9BK_Y-326" style="edgeStyle=orthogonalEdgeStyle;rounded=0;orthogonalLoop=1;jettySize=auto;html=1;fillColor=none;" parent="1" source="-e5JYh3tk_dBkfc9BK_Y-327" target="-e5JYh3tk_dBkfc9BK_Y-325" edge="1">
          <mxGeometry relative="1" as="geometry">
            <Array as="points">
              <mxPoint x="1217.2100000000003" y="1940" />
              <mxPoint x="1217.2100000000003" y="1940" />
            </Array>
          </mxGeometry>
        </mxCell>
        <mxCell id="-e5JYh3tk_dBkfc9BK_Y-327" value="Barcode Table" style="ellipse;whiteSpace=wrap;html=1;fillColor=none;" parent="1" vertex="1">
          <mxGeometry x="1173.14" y="1880" width="89" height="40" as="geometry" />
        </mxCell>
        <mxCell id="-e5JYh3tk_dBkfc9BK_Y-328" value="Trace table" style="ellipse;whiteSpace=wrap;html=1;fillColor=none;" parent="1" vertex="1">
          <mxGeometry x="1222.5000000000002" y="2040" width="89" height="40" as="geometry" />
        </mxCell>
        <mxCell id="-e5JYh3tk_dBkfc9BK_Y-329" value="Segmented 3D image" style="ellipse;whiteSpace=wrap;html=1;fillColor=none;" parent="1" vertex="1">
          <mxGeometry x="1271.8500000000001" y="1880" width="89" height="40" as="geometry" />
        </mxCell>
        <mxCell id="-e5JYh3tk_dBkfc9BK_Y-330" style="edgeStyle=orthogonalEdgeStyle;rounded=0;orthogonalLoop=1;jettySize=auto;html=1;entryX=0.909;entryY=-0.008;entryDx=0;entryDy=0;entryPerimeter=0;fillColor=none;" parent="1" source="-e5JYh3tk_dBkfc9BK_Y-329" target="-e5JYh3tk_dBkfc9BK_Y-325" edge="1">
          <mxGeometry relative="1" as="geometry" />
        </mxCell>
        <mxCell id="-e5JYh3tk_dBkfc9BK_Y-331" style="edgeStyle=orthogonalEdgeStyle;rounded=0;orthogonalLoop=1;jettySize=auto;html=1;fillColor=none;" parent="1" source="-e5JYh3tk_dBkfc9BK_Y-332" target="-e5JYh3tk_dBkfc9BK_Y-335" edge="1">
          <mxGeometry relative="1" as="geometry" />
        </mxCell>
        <mxCell id="-e5JYh3tk_dBkfc9BK_Y-332" value="build_matrix" style="rounded=0;whiteSpace=wrap;html=1;fillColor=none;" parent="1" vertex="1">
          <mxGeometry x="1415.2100000000003" y="1950" width="120" height="60" as="geometry" />
        </mxCell>
        <mxCell id="-e5JYh3tk_dBkfc9BK_Y-333" style="edgeStyle=orthogonalEdgeStyle;rounded=0;orthogonalLoop=1;jettySize=auto;html=1;fillColor=none;" parent="1" source="-e5JYh3tk_dBkfc9BK_Y-334" edge="1">
          <mxGeometry relative="1" as="geometry">
            <Array as="points">
              <mxPoint x="1471.4200000000003" y="1940" />
              <mxPoint x="1471.4200000000003" y="1940" />
            </Array>
            <mxPoint x="1471.8500000000001" y="1950" as="targetPoint" />
          </mxGeometry>
        </mxCell>
        <mxCell id="-e5JYh3tk_dBkfc9BK_Y-334" value="Trace table" style="ellipse;whiteSpace=wrap;html=1;fillColor=none;" parent="1" vertex="1">
          <mxGeometry x="1427.3500000000001" y="1880" width="89" height="40" as="geometry" />
        </mxCell>
        <mxCell id="-e5JYh3tk_dBkfc9BK_Y-335" value="Matrices" style="ellipse;whiteSpace=wrap;html=1;fillColor=none;" parent="1" vertex="1">
          <mxGeometry x="1430.7100000000003" y="2040" width="89" height="40" as="geometry" />
        </mxCell>
        <mxCell id="5HAyLcFatTJW0D2ZAjB1-11" value="TiffModule" style="swimlane;fontStyle=1;align=center;verticalAlign=top;childLayout=stackLayout;horizontal=1;startSize=26;horizontalStack=0;resizeParent=1;resizeParentMax=0;resizeLast=0;collapsible=1;marginBottom=0;whiteSpace=wrap;html=1;" vertex="1" parent="1">
          <mxGeometry x="1310" y="4980" width="300" height="34" as="geometry" />
        </mxCell>
        <mxCell id="5HAyLcFatTJW0D2ZAjB1-14" value="" style="line;strokeWidth=1;fillColor=none;align=left;verticalAlign=middle;spacingTop=-1;spacingLeft=3;spacingRight=3;rotatable=0;labelPosition=right;points=[];portConstraint=eastwest;strokeColor=inherit;" vertex="1" parent="5HAyLcFatTJW0D2ZAjB1-11">
          <mxGeometry y="26" width="300" height="8" as="geometry" />
        </mxCell>
        <mxCell id="5HAyLcFatTJW0D2ZAjB1-20" style="edgeStyle=orthogonalEdgeStyle;rounded=0;orthogonalLoop=1;jettySize=auto;html=1;entryX=0.494;entryY=1.131;entryDx=0;entryDy=0;entryPerimeter=0;" edge="1" parent="1" source="5HAyLcFatTJW0D2ZAjB1-11" target="-e5JYh3tk_dBkfc9BK_Y-269">
          <mxGeometry relative="1" as="geometry">
            <Array as="points">
              <mxPoint x="1458" y="4930" />
              <mxPoint x="1458" y="4930" />
            </Array>
          </mxGeometry>
        </mxCell>
        <mxCell id="5HAyLcFatTJW0D2ZAjB1-21" value="DataType: Literal[str]" style="swimlane;fontStyle=0;childLayout=stackLayout;horizontal=1;startSize=30;horizontalStack=0;resizeParent=1;resizeParentMax=0;resizeLast=0;collapsible=1;marginBottom=0;whiteSpace=wrap;html=1;" vertex="1" parent="1">
          <mxGeometry x="220" y="5060" width="140" height="150" as="geometry" />
        </mxCell>
        <mxCell id="5HAyLcFatTJW0D2ZAjB1-22" value="fiducial" style="text;strokeColor=none;fillColor=none;align=left;verticalAlign=middle;spacingLeft=4;spacingRight=4;overflow=hidden;points=[[0,0.5],[1,0.5]];portConstraint=eastwest;rotatable=0;whiteSpace=wrap;html=1;" vertex="1" parent="5HAyLcFatTJW0D2ZAjB1-21">
          <mxGeometry y="30" width="140" height="30" as="geometry" />
        </mxCell>
        <mxCell id="5HAyLcFatTJW0D2ZAjB1-23" value="barcode" style="text;strokeColor=none;fillColor=none;align=left;verticalAlign=middle;spacingLeft=4;spacingRight=4;overflow=hidden;points=[[0,0.5],[1,0.5]];portConstraint=eastwest;rotatable=0;whiteSpace=wrap;html=1;" vertex="1" parent="5HAyLcFatTJW0D2ZAjB1-21">
          <mxGeometry y="60" width="140" height="30" as="geometry" />
        </mxCell>
        <mxCell id="5HAyLcFatTJW0D2ZAjB1-24" value="mask" style="text;strokeColor=none;fillColor=none;align=left;verticalAlign=middle;spacingLeft=4;spacingRight=4;overflow=hidden;points=[[0,0.5],[1,0.5]];portConstraint=eastwest;rotatable=0;whiteSpace=wrap;html=1;" vertex="1" parent="5HAyLcFatTJW0D2ZAjB1-21">
          <mxGeometry y="90" width="140" height="30" as="geometry" />
        </mxCell>
        <mxCell id="5HAyLcFatTJW0D2ZAjB1-25" value="trace" style="text;strokeColor=none;fillColor=none;align=left;verticalAlign=middle;spacingLeft=4;spacingRight=4;overflow=hidden;points=[[0,0.5],[1,0.5]];portConstraint=eastwest;rotatable=0;whiteSpace=wrap;html=1;" vertex="1" parent="5HAyLcFatTJW0D2ZAjB1-21">
          <mxGeometry y="120" width="140" height="30" as="geometry" />
        </mxCell>
        <mxCell id="5HAyLcFatTJW0D2ZAjB1-26" value="ModuleName: Literal[str]" style="swimlane;fontStyle=0;childLayout=stackLayout;horizontal=1;startSize=30;horizontalStack=0;resizeParent=1;resizeParentMax=0;resizeLast=0;collapsible=1;marginBottom=0;whiteSpace=wrap;html=1;" vertex="1" parent="1">
          <mxGeometry x="40" y="5060" width="140" height="420" as="geometry" />
        </mxCell>
        <mxCell id="5HAyLcFatTJW0D2ZAjB1-27" value="project" style="text;strokeColor=none;fillColor=none;align=left;verticalAlign=middle;spacingLeft=4;spacingRight=4;overflow=hidden;points=[[0,0.5],[1,0.5]];portConstraint=eastwest;rotatable=0;whiteSpace=wrap;html=1;" vertex="1" parent="5HAyLcFatTJW0D2ZAjB1-26">
          <mxGeometry y="30" width="140" height="30" as="geometry" />
        </mxCell>
        <mxCell id="5HAyLcFatTJW0D2ZAjB1-28" value="register_global" style="text;strokeColor=none;fillColor=none;align=left;verticalAlign=middle;spacingLeft=4;spacingRight=4;overflow=hidden;points=[[0,0.5],[1,0.5]];portConstraint=eastwest;rotatable=0;whiteSpace=wrap;html=1;" vertex="1" parent="5HAyLcFatTJW0D2ZAjB1-26">
          <mxGeometry y="60" width="140" height="30" as="geometry" />
        </mxCell>
        <mxCell id="5HAyLcFatTJW0D2ZAjB1-29" value="shift" style="text;strokeColor=none;fillColor=none;align=left;verticalAlign=middle;spacingLeft=4;spacingRight=4;overflow=hidden;points=[[0,0.5],[1,0.5]];portConstraint=eastwest;rotatable=0;whiteSpace=wrap;html=1;" vertex="1" parent="5HAyLcFatTJW0D2ZAjB1-26">
          <mxGeometry y="90" width="140" height="30" as="geometry" />
        </mxCell>
        <mxCell id="5HAyLcFatTJW0D2ZAjB1-31" value="shift_fiducial" style="text;strokeColor=none;fillColor=none;align=left;verticalAlign=middle;spacingLeft=4;spacingRight=4;overflow=hidden;points=[[0,0.5],[1,0.5]];portConstraint=eastwest;rotatable=0;whiteSpace=wrap;html=1;" vertex="1" parent="5HAyLcFatTJW0D2ZAjB1-26">
          <mxGeometry y="120" width="140" height="30" as="geometry" />
        </mxCell>
        <mxCell id="5HAyLcFatTJW0D2ZAjB1-30" value="register_local" style="text;strokeColor=none;fillColor=none;align=left;verticalAlign=middle;spacingLeft=4;spacingRight=4;overflow=hidden;points=[[0,0.5],[1,0.5]];portConstraint=eastwest;rotatable=0;whiteSpace=wrap;html=1;" vertex="1" parent="5HAyLcFatTJW0D2ZAjB1-26">
          <mxGeometry y="150" width="140" height="30" as="geometry" />
        </mxCell>
        <mxCell id="5HAyLcFatTJW0D2ZAjB1-33" value="filter_table" style="text;strokeColor=none;fillColor=none;align=left;verticalAlign=middle;spacingLeft=4;spacingRight=4;overflow=hidden;points=[[0,0.5],[1,0.5]];portConstraint=eastwest;rotatable=0;whiteSpace=wrap;html=1;" vertex="1" parent="5HAyLcFatTJW0D2ZAjB1-26">
          <mxGeometry y="180" width="140" height="30" as="geometry" />
        </mxCell>
        <mxCell id="5HAyLcFatTJW0D2ZAjB1-34" value="filter_mask" style="text;strokeColor=none;fillColor=none;align=left;verticalAlign=middle;spacingLeft=4;spacingRight=4;overflow=hidden;points=[[0,0.5],[1,0.5]];portConstraint=eastwest;rotatable=0;whiteSpace=wrap;html=1;" vertex="1" parent="5HAyLcFatTJW0D2ZAjB1-26">
          <mxGeometry y="210" width="140" height="30" as="geometry" />
        </mxCell>
        <mxCell id="5HAyLcFatTJW0D2ZAjB1-35" value="&lt;div&gt;segment&lt;/div&gt;" style="text;strokeColor=none;fillColor=none;align=left;verticalAlign=middle;spacingLeft=4;spacingRight=4;overflow=hidden;points=[[0,0.5],[1,0.5]];portConstraint=eastwest;rotatable=0;whiteSpace=wrap;html=1;" vertex="1" parent="5HAyLcFatTJW0D2ZAjB1-26">
          <mxGeometry y="240" width="140" height="30" as="geometry" />
        </mxCell>
        <mxCell id="5HAyLcFatTJW0D2ZAjB1-36" value="extract" style="text;strokeColor=none;fillColor=none;align=left;verticalAlign=middle;spacingLeft=4;spacingRight=4;overflow=hidden;points=[[0,0.5],[1,0.5]];portConstraint=eastwest;rotatable=0;whiteSpace=wrap;html=1;" vertex="1" parent="5HAyLcFatTJW0D2ZAjB1-26">
          <mxGeometry y="270" width="140" height="30" as="geometry" />
        </mxCell>
        <mxCell id="5HAyLcFatTJW0D2ZAjB1-38" value="filter_localization" style="text;strokeColor=none;fillColor=none;align=left;verticalAlign=middle;spacingLeft=4;spacingRight=4;overflow=hidden;points=[[0,0.5],[1,0.5]];portConstraint=eastwest;rotatable=0;whiteSpace=wrap;html=1;" vertex="1" parent="5HAyLcFatTJW0D2ZAjB1-26">
          <mxGeometry y="300" width="140" height="30" as="geometry" />
        </mxCell>
        <mxCell id="5HAyLcFatTJW0D2ZAjB1-40" value="register_localization" style="text;strokeColor=none;fillColor=none;align=left;verticalAlign=middle;spacingLeft=4;spacingRight=4;overflow=hidden;points=[[0,0.5],[1,0.5]];portConstraint=eastwest;rotatable=0;whiteSpace=wrap;html=1;" vertex="1" parent="5HAyLcFatTJW0D2ZAjB1-26">
          <mxGeometry y="330" width="140" height="30" as="geometry" />
        </mxCell>
        <mxCell id="5HAyLcFatTJW0D2ZAjB1-32" value="build_trace" style="text;strokeColor=none;fillColor=none;align=left;verticalAlign=middle;spacingLeft=4;spacingRight=4;overflow=hidden;points=[[0,0.5],[1,0.5]];portConstraint=eastwest;rotatable=0;whiteSpace=wrap;html=1;" vertex="1" parent="5HAyLcFatTJW0D2ZAjB1-26">
          <mxGeometry y="360" width="140" height="30" as="geometry" />
        </mxCell>
        <mxCell id="5HAyLcFatTJW0D2ZAjB1-39" value="build_matrix" style="text;strokeColor=none;fillColor=none;align=left;verticalAlign=middle;spacingLeft=4;spacingRight=4;overflow=hidden;points=[[0,0.5],[1,0.5]];portConstraint=eastwest;rotatable=0;whiteSpace=wrap;html=1;" vertex="1" parent="5HAyLcFatTJW0D2ZAjB1-26">
          <mxGeometry y="390" width="140" height="30" as="geometry" />
        </mxCell>
        <mxCell id="5HAyLcFatTJW0D2ZAjB1-44" value="User" style="shape=umlActor;verticalLabelPosition=bottom;verticalAlign=top;html=1;outlineConnect=0;" vertex="1" parent="1">
          <mxGeometry x="398" y="5630" width="30" height="60" as="geometry" />
        </mxCell>
        <mxCell id="5HAyLcFatTJW0D2ZAjB1-45" value="pyhim -C shift --input ROI_001/to_shift --output ROI_001/to_extract_filter" style="shape=callout;whiteSpace=wrap;html=1;perimeter=calloutPerimeter;" vertex="1" parent="1">
          <mxGeometry x="176.39" y="5540" width="478.11" height="80" as="geometry" />
        </mxCell>
        <mxCell id="5HAyLcFatTJW0D2ZAjB1-46" value="User" style="shape=umlActor;verticalLabelPosition=bottom;verticalAlign=top;html=1;outlineConnect=0;" vertex="1" parent="1">
          <mxGeometry x="1245.0000000000002" y="5630" width="30" height="60" as="geometry" />
        </mxCell>
        <mxCell id="5HAyLcFatTJW0D2ZAjB1-47" value="pyhim -C extract,filter_table,filter_mask --input ROI_001/to_extract_filter --output ROI_001/mask_3d_filtered" style="shape=callout;whiteSpace=wrap;html=1;perimeter=calloutPerimeter;" vertex="1" parent="1">
          <mxGeometry x="918.7099999999999" y="5540" width="682.58" height="80" as="geometry" />
        </mxCell>
        <mxCell id="5HAyLcFatTJW0D2ZAjB1-50" value="User" style="shape=umlActor;verticalLabelPosition=bottom;verticalAlign=top;html=1;outlineConnect=0;" vertex="1" parent="1">
          <mxGeometry x="413.71000000000026" y="6360" width="30" height="60" as="geometry" />
        </mxCell>
        <mxCell id="5HAyLcFatTJW0D2ZAjB1-51" value="pyhim -C build_trace,build_matrix" style="shape=callout;whiteSpace=wrap;html=1;perimeter=calloutPerimeter;" vertex="1" parent="1">
          <mxGeometry x="87.41999999999996" y="6270" width="682.58" height="80" as="geometry" />
        </mxCell>
      </root>
    </mxGraphModel>
  </diagram>
</mxfile>
